<svg xmlns="http://www.w3.org/2000/svg" width="26" height="26" fill="none"><g clip-path="url(#a)"><path stroke="#2C0958" stroke-linecap="round" stroke-linejoin="round" stroke-miterlimit="10" stroke-width="2.286" d="M20.096 11.14a8.952 8.952 0 0 1-8.954 8.954 8.952 8.952 0 0 1-8.954-8.954 8.952 8.952 0 0 1 8.954-8.954 8.952 8.952 0 0 1 8.954 8.954Z"/><path fill="url(#b)" d="M26.002 17.046A8.952 8.952 0 0 1 17.048 26a8.952 8.952 0 0 1-8.954-8.954 8.952 8.952 0 0 1 8.954-8.955c4.947.02 8.954 4.027 8.954 8.955Z"/></g><defs><linearGradient id="b" x1="8.094" x2="22.189" y1="17.046" y2="11.351" gradientUnits="userSpaceOnUse"><stop stop-color="#FF62B7"/><stop offset="1" stop-color="#9F53FF"/></linearGradient><clipPath id="a"><path fill="#fff" d="M0 0h26v26H0z"/></clipPath></defs></svg>