<svg xmlns="http://www.w3.org/2000/svg" width="118" height="118" fill="none"><path fill="url(#a)" d="M61.219 114.661a3.79 3.79 0 0 1 3.319-4.221 3.804 3.804 0 0 1 4.249 3.318 3.79 3.79 0 0 1-3.319 4.221c-.17.021-.317.021-.465.021-1.903 0-3.551-1.407-3.784-3.339Zm-24.162-.063c-1.966-.756-2.96-2.94-2.22-4.893.74-1.953 2.938-2.94 4.904-2.205a3.8 3.8 0 0 1 2.22 4.893 3.845 3.845 0 0 1-3.573 2.457c-.422-.021-.887-.084-1.331-.252Zm49.825-7.665c-1.205-1.722-.76-4.074.973-5.292a3.825 3.825 0 0 1 5.305.966c1.206 1.722.783 4.074-.95 5.292a3.798 3.798 0 0 1-2.178.672c-1.205-.021-2.41-.588-3.15-1.638Zm-73.375-8.464a3.79 3.79 0 0 1 .318-5.354c1.585-1.386 3.995-1.26 5.39.315 1.395 1.574 1.268 3.968-.317 5.354a3.759 3.759 0 0 1-2.537.966 3.84 3.84 0 0 1-2.854-1.28ZM106.013 88.2c-1.86-.987-2.579-3.276-1.606-5.124.972-1.848 3.276-2.562 5.158-1.596a3.796 3.796 0 0 1 1.606 5.124 3.821 3.821 0 0 1-5.158 1.596ZM.168 73.332c-.486-2.037.761-4.095 2.79-4.578a3.81 3.81 0 0 1 4.61 2.772c.507 2.016-.74 4.074-2.791 4.578a3.418 3.418 0 0 1-.93.105c-1.691 0-3.256-1.155-3.679-2.877Zm110.2-14.322v-.21c-.021-2.1 1.691-3.8 3.805-3.8 2.114-.022 3.826 1.68 3.826 3.758V58.99c0 2.1-1.712 3.801-3.826 3.801a3.764 3.764 0 0 1-3.805-3.78ZM2.917 49.497A3.792 3.792 0 0 1 .105 44.92c.486-2.037 2.579-3.276 4.608-2.793a3.772 3.772 0 0 1 2.79 4.578 3.826 3.826 0 0 1-3.699 2.898 2.635 2.635 0 0 1-.887-.105ZM104.3 34.755a3.795 3.795 0 0 1 1.585-5.124 3.826 3.826 0 0 1 5.158 1.575c.994 1.848.275 4.137-1.585 5.124a3.897 3.897 0 0 1-1.776.441c-1.374.021-2.684-.714-3.382-2.016Zm-90.603-9.66a3.773 3.773 0 0 1-.339-5.355 3.833 3.833 0 0 1 5.39-.336 3.773 3.773 0 0 1 .34 5.355 3.852 3.852 0 0 1-2.876 1.28 3.828 3.828 0 0 1-2.515-.944Zm73.987-8.841a3.788 3.788 0 0 1-.993-5.271 3.825 3.825 0 0 1 5.306-.966c1.733 1.197 2.198 3.528.993 5.27a3.797 3.797 0 0 1-3.15 1.639c-.74 0-1.48-.21-2.156-.672ZM34.647 8.42c-.761-1.953.232-4.137 2.198-4.893 1.966-.735 4.165.23 4.926 2.184a3.797 3.797 0 0 1-2.199 4.893 3.966 3.966 0 0 1-1.374.252 3.819 3.819 0 0 1-3.551-2.436Zm29.68-.861a3.774 3.774 0 0 1-3.34-4.2c.232-2.08 2.156-3.57 4.227-3.318a3.774 3.774 0 0 1 3.34 4.2A3.788 3.788 0 0 1 64.77 7.58c-.126 0-.274-.021-.444-.021Z"/><path fill="url(#b)" d="M60.67 104.539a3.088 3.088 0 0 1 2.727-3.444c1.712-.21 3.276 1.008 3.467 2.709a3.088 3.088 0 0 1-2.728 3.444c-.126.021-.253.021-.38.021a3.098 3.098 0 0 1-3.086-2.73Zm-19.766-.063c-1.606-.609-2.43-2.394-1.797-3.99.592-1.596 2.41-2.415 4.017-1.806 1.606.609 2.431 2.394 1.818 3.99a3.127 3.127 0 0 1-2.917 2.016c-.38 0-.761-.063-1.12-.21Zm40.778-6.258c-.972-1.407-.613-3.34.782-4.326 1.417-.966 3.362-.61 4.355.777.972 1.407.613 3.339-.782 4.326a3.263 3.263 0 0 1-1.776.546 3.127 3.127 0 0 1-2.579-1.323Zm-60.057-6.93a3.06 3.06 0 0 1 .275-4.368c1.29-1.134 3.256-1.03 4.397.252a3.103 3.103 0 0 1-.254 4.389 3.103 3.103 0 0 1-2.071.777 3.163 3.163 0 0 1-2.347-1.05Zm75.7-8.38c-1.522-.818-2.135-2.687-1.31-4.2a3.125 3.125 0 0 1 4.206-1.301c1.522.798 2.114 2.688 1.311 4.179a3.116 3.116 0 0 1-2.77 1.659 3.14 3.14 0 0 1-1.437-.336Zm-86.608-12.18c-.423-1.658.613-3.338 2.283-3.758a3.114 3.114 0 0 1 3.784 2.268 3.124 3.124 0 0 1-2.283 3.759 3.131 3.131 0 0 1-.76.084 3.127 3.127 0 0 1-3.024-2.352Zm90.16-11.717c.021-.022.021-.022.021-.043 0-.042-.021-.084-.021-.105a3.138 3.138 0 0 1 3.107-3.129c1.734 0 3.129 1.386 3.129 3.087v.189a3.107 3.107 0 0 1-3.108 3.108 3.111 3.111 0 0 1-3.128-3.108Zm-87.898-7.77a3.088 3.088 0 0 1-2.283-3.76h-.021a3.12 3.12 0 0 1 3.784-2.268 3.117 3.117 0 0 1 2.304 3.76 3.133 3.133 0 0 1-3.044 2.351c-.254 0-.507-.02-.74-.084ZM95.93 39.164a3.107 3.107 0 0 1 1.29-4.2 3.148 3.148 0 0 1 4.227 1.281c.825 1.512.233 3.402-1.289 4.2a3.319 3.319 0 0 1-1.459.357 3.096 3.096 0 0 1-2.769-1.638Zm-74.136-7.917a3.078 3.078 0 0 1-.274-4.368 3.127 3.127 0 0 1 4.396-.273 3.102 3.102 0 0 1 .275 4.39 3.163 3.163 0 0 1-2.346 1.05 3.225 3.225 0 0 1-2.05-.799Zm60.522-7.203a3.109 3.109 0 0 1-.803-4.326 3.134 3.134 0 0 1 4.334-.798 3.11 3.11 0 0 1 .824 4.305 3.122 3.122 0 0 1-2.579 1.344 2.927 2.927 0 0 1-1.776-.525ZM38.938 17.62c-.613-1.596.19-3.38 1.797-4.01 1.607-.61 3.425.188 4.038 1.784.634 1.596-.19 3.381-1.797 4.011-.36.147-.761.21-1.12.21-1.269 0-2.453-.756-2.918-1.995Zm24.29-.714a3.107 3.107 0 0 1-2.749-3.444 3.111 3.111 0 0 1 3.467-2.709c1.713.21 2.939 1.743 2.727 3.444a3.139 3.139 0 0 1-3.107 2.751c-.106-.02-.233-.02-.339-.042Z"/><path fill="url(#c)" d="M60.203 95.908a2.51 2.51 0 0 1 2.198-2.793c1.395-.168 2.664.798 2.833 2.205.169 1.365-.825 2.625-2.22 2.793-.106.02-.211.02-.296.02-1.268-.02-2.367-.944-2.515-2.225Zm-16.024-.063a2.485 2.485 0 0 1-1.459-3.234c.487-1.302 1.945-1.953 3.256-1.47a2.513 2.513 0 0 1 1.48 3.234 2.545 2.545 0 0 1-2.368 1.638c-.296 0-.613-.042-.909-.168Zm33.04-5.082a2.512 2.512 0 0 1 .635-3.507c1.142-.777 2.727-.504 3.53.63a2.53 2.53 0 0 1-.634 3.507 2.638 2.638 0 0 1-1.459.44 2.42 2.42 0 0 1-2.071-1.07Zm-48.64-5.607a2.49 2.49 0 0 1 .21-3.55 2.53 2.53 0 0 1 3.573.21 2.49 2.49 0 0 1-.211 3.55c-.487.42-1.078.63-1.67.63a2.4 2.4 0 0 1-1.903-.84Zm61.303-6.783a2.516 2.516 0 0 1-1.057-3.402c.656-1.218 2.178-1.701 3.404-1.05 1.226.65 1.712 2.163 1.078 3.38a2.543 2.543 0 0 1-2.262 1.345c-.38 0-.782-.084-1.163-.273Zm-70.14-9.87a2.512 2.512 0 0 1 1.839-3.045 2.53 2.53 0 0 1 3.065 1.827c.338 1.344-.486 2.709-1.86 3.045-.212.042-.402.084-.592.084-1.142 0-2.177-.756-2.452-1.911Zm73.036-9.492V58.864c-.02-1.386 1.12-2.52 2.516-2.52a2.505 2.505 0 0 1 2.537 2.499c0 .02-.021.042-.021.084 0 .02.02.042.02.084 0 1.386-1.14 2.52-2.536 2.52a2.531 2.531 0 0 1-2.516-2.52Zm-71.218-6.3c-1.353-.336-2.199-1.701-1.86-3.024.338-1.344 1.69-2.184 3.044-1.848a2.542 2.542 0 0 1 1.86 3.044c-.275 1.156-1.31 1.912-2.452 1.912-.19 0-.402-.042-.592-.084Zm67.202-9.765c-.655-1.218-.19-2.752 1.036-3.382 1.226-.65 2.769-.189 3.424 1.03a2.514 2.514 0 0 1-1.035 3.401c-.381.21-.783.294-1.205.294a2.503 2.503 0 0 1-2.22-1.343Zm-60.057-6.427c-1.057-.924-1.163-2.499-.233-3.528a2.53 2.53 0 0 1 3.573-.23 2.508 2.508 0 0 1 .211 3.548 2.575 2.575 0 0 1-1.902.84c-.592 0-1.184-.189-1.649-.63Zm49.043-5.838c-1.141-.777-1.437-2.352-.655-3.507a2.548 2.548 0 0 1 3.51-.65 2.474 2.474 0 0 1 .654 3.485 2.528 2.528 0 0 1-2.092 1.092c-.487.021-.973-.126-1.417-.42Zm-35.176-5.208a2.543 2.543 0 0 1 1.459-3.255c1.31-.483 2.77.147 3.277 1.45a2.534 2.534 0 0 1-1.459 3.254 2.68 2.68 0 0 1-.909.168 2.546 2.546 0 0 1-2.368-1.617Zm19.702-.567c-1.395-.168-2.389-1.407-2.22-2.793a2.521 2.521 0 0 1 2.812-2.205 2.5 2.5 0 0 1 2.22 2.793c-.148 1.281-1.226 2.205-2.516 2.205a.703.703 0 0 1-.296 0Z"/><defs><linearGradient id="a" x1="0" x2="92.868" y1="59.007" y2="21.485" gradientUnits="userSpaceOnUse"><stop stop-color="#FF62B7"/><stop offset="1" stop-color="#9F53FF"/></linearGradient><linearGradient id="b" x1="10.602" x2="86.567" y1="58.999" y2="28.319" gradientUnits="userSpaceOnUse"><stop stop-color="#FF62B7"/><stop offset="1" stop-color="#9F53FF"/></linearGradient><linearGradient id="c" x1="19.625" x2="81.185" y1="59.012" y2="34.155" gradientUnits="userSpaceOnUse"><stop stop-color="#FF62B7"/><stop offset="1" stop-color="#9F53FF"/></linearGradient></defs></svg>