<svg width="180" height="171" viewBox="0 0 180 171" fill="none" xmlns="http://www.w3.org/2000/svg">
<path d="M118.115 113.328C102.462 128.981 85.1352 139.961 69.7941 145.075C54.4213 150.199 41.2034 149.39 33.5614 141.748C25.9194 134.106 25.1099 120.888 30.2342 105.515C35.3479 90.1741 46.3286 72.8473 61.9817 57.1942C77.6348 41.541 94.9617 30.5604 110.303 25.4467C125.676 20.3224 138.894 21.1319 146.535 28.7739C154.177 36.4158 154.987 49.6338 149.863 65.0066C144.749 80.3477 133.768 97.6745 118.115 113.328Z" stroke="url(#paint0_linear_1_101)"/>
<path d="M109.897 119.635C90.7264 130.704 71.1479 136.826 55.006 137.795C38.8308 138.766 26.2727 134.563 20.869 125.203C15.4653 115.844 18.1045 102.867 27.033 89.3438C35.943 75.849 51.034 61.9546 70.2051 50.8861C89.3761 39.8177 108.955 33.6957 125.096 32.7268C141.272 31.7559 153.83 35.9589 159.233 45.3184C164.637 54.6779 161.998 67.6549 153.07 81.1776C144.16 94.6725 129.069 108.567 109.897 119.635Z" stroke="url(#paint1_linear_1_101)"/>
<defs>
<linearGradient id="paint0_linear_1_101" x1="61.6281" y1="56.8406" x2="121.724" y2="96.7388" gradientUnits="userSpaceOnUse">
<stop stop-color="#FF62B7"/>
<stop offset="1" stop-color="#9F53FF"/>
</linearGradient>
<linearGradient id="paint1_linear_1_101" x1="69.9551" y1="50.4531" x2="117.677" y2="104.546" gradientUnits="userSpaceOnUse">
<stop stop-color="#FF62B7"/>
<stop offset="1" stop-color="#9F53FF"/>
</linearGradient>
</defs>
</svg>
