<svg width="127" height="46" viewBox="0 0 127 46" fill="none" xmlns="http://www.w3.org/2000/svg">
<path d="M0.756 33.392C0.924 33.392 1.116 33.344 1.332 33.248C1.572 33.152 1.788 33.008 1.98 32.816C2.196 32.624 2.364 32.384 2.484 32.096C2.628 31.808 2.7 31.472 2.7 31.088V10.676C2.7 10.436 2.628 10.184 2.484 9.92C2.364 9.632 2.208 9.38 2.016 9.164C1.848 8.948 1.644 8.768 1.404 8.624C1.188 8.48 0.996 8.408 0.828 8.408V8.3H18.252L19.116 12.512C18.9 12.176 18.588 11.792 18.18 11.36C17.796 10.928 17.364 10.52 16.884 10.136C16.428 9.728 15.924 9.392 15.372 9.128C14.844 8.84 14.328 8.696 13.824 8.696H7.632C6.936 8.696 6.396 8.876 6.012 9.236C5.628 9.572 5.436 10.052 5.436 10.676V18.416C5.436 19.04 5.628 19.532 6.012 19.892C6.396 20.228 6.936 20.396 7.632 20.396H11.772C12.54 20.396 13.164 20.348 13.644 20.252C14.124 20.132 14.496 19.976 14.76 19.784C15.048 19.592 15.252 19.352 15.372 19.064C15.492 18.752 15.576 18.392 15.624 17.984H15.696V23.636H15.624C15.552 23.204 15.456 22.82 15.336 22.484C15.216 22.124 15.024 21.824 14.76 21.584C14.496 21.32 14.124 21.128 13.644 21.008C13.164 20.864 12.54 20.792 11.772 20.792H5.436V31.088C5.436 31.472 5.496 31.808 5.616 32.096C5.76 32.384 5.928 32.624 6.12 32.816C6.312 33.008 6.516 33.152 6.732 33.248C6.948 33.344 7.152 33.392 7.344 33.392V33.5H0.756V33.392ZM22.0047 8.3H42.1647L43.0647 12.512C42.8247 12.176 42.5127 11.792 42.1287 11.36C41.7447 10.928 41.3127 10.52 40.8327 10.136C40.3527 9.728 39.8367 9.392 39.2847 9.128C38.7567 8.84 38.2407 8.696 37.7367 8.696H35.6487C34.9527 8.696 34.4127 8.876 34.0287 9.236C33.6447 9.572 33.4527 10.052 33.4527 10.676V31.088C33.4527 31.472 33.5127 31.808 33.6327 32.096C33.7767 32.384 33.9447 32.624 34.1367 32.816C34.3287 33.008 34.5327 33.152 34.7487 33.248C34.9647 33.344 35.1687 33.392 35.3607 33.392V33.5H28.8087V33.392C28.9767 33.392 29.1687 33.344 29.3847 33.248C29.6247 33.152 29.8407 33.008 30.0327 32.816C30.2247 32.624 30.3807 32.384 30.5007 32.096C30.6447 31.808 30.7167 31.472 30.7167 31.088V10.676C30.7167 10.052 30.5247 9.572 30.1407 9.236C29.7567 8.876 29.2167 8.696 28.5207 8.696H26.4327C25.9287 8.696 25.4007 8.84 24.8487 9.128C24.3207 9.392 23.8167 9.728 23.3367 10.136C22.8807 10.52 22.4487 10.928 22.0407 11.36C21.6567 11.792 21.3567 12.176 21.1407 12.512L22.0047 8.3ZM59.2456 8.3V8.408C58.8856 8.504 58.6096 8.66 58.4176 8.876C58.2256 9.092 58.0816 9.32 57.9856 9.56C57.9136 9.8 57.8896 10.04 57.9136 10.28C57.9376 10.496 57.9856 10.676 58.0576 10.82L63.2776 20.216C63.6136 20.84 63.8776 21.308 64.0696 21.62C64.2856 21.908 64.4776 22.052 64.6456 22.052C64.8376 22.052 65.0176 21.908 65.1856 21.62C65.3776 21.332 65.6296 20.888 65.9416 20.288L70.7296 11.252C70.8736 10.892 70.9096 10.544 70.8376 10.208C70.7896 9.872 70.6696 9.572 70.4776 9.308C70.3096 9.044 70.1056 8.828 69.8656 8.66C69.6256 8.492 69.3976 8.408 69.1816 8.408V8.3H74.3296V8.408C73.7776 8.504 73.2136 8.816 72.6376 9.344C72.0856 9.872 71.5696 10.568 71.0896 11.432L66.1216 20.9C65.9056 21.332 65.7136 21.74 65.5456 22.124C65.4016 22.508 65.2816 22.904 65.1856 23.312C65.0896 23.72 65.0176 24.164 64.9696 24.644C64.9216 25.124 64.8976 25.676 64.8976 26.3V31.088C64.8976 31.472 64.9576 31.808 65.0776 32.096C65.2216 32.384 65.3896 32.624 65.5816 32.816C65.7976 33.008 66.0136 33.152 66.2296 33.248C66.4456 33.344 66.6496 33.392 66.8416 33.392V33.5H60.2536V33.392C60.4216 33.392 60.6136 33.344 60.8296 33.248C61.0696 33.152 61.2856 33.008 61.4776 32.816C61.6936 32.624 61.8616 32.384 61.9816 32.096C62.1256 31.808 62.1976 31.472 62.1976 31.088V26.3C62.1976 25.58 62.1016 24.8 61.9096 23.96C61.7416 23.096 61.3936 22.16 60.8656 21.152L55.0696 10.928C54.5656 10.04 54.0136 9.404 53.4136 9.02C52.8136 8.612 52.3576 8.408 52.0456 8.408V8.3H59.2456ZM73.8903 25.4C73.8903 24.176 74.0823 23.036 74.4663 21.98C74.8503 20.924 75.3903 20.012 76.0863 19.244C76.8063 18.452 77.6703 17.84 78.6783 17.408C79.6863 16.976 80.8263 16.76 82.0983 16.76C83.4183 16.76 84.5943 16.976 85.6263 17.408C86.6583 17.816 87.5223 18.404 88.2183 19.172C88.9383 19.916 89.4783 20.816 89.8383 21.872C90.1983 22.928 90.3783 24.104 90.3783 25.4C90.3783 26.672 90.1863 27.836 89.8023 28.892C89.4423 29.924 88.9023 30.812 88.1823 31.556C87.4863 32.3 86.6223 32.876 85.5903 33.284C84.5823 33.692 83.4303 33.896 82.1343 33.896C80.8383 33.896 79.6743 33.692 78.6423 33.284C77.6343 32.876 76.7703 32.3 76.0503 31.556C75.3543 30.812 74.8143 29.924 74.4303 28.892C74.0703 27.836 73.8903 26.672 73.8903 25.4ZM81.7743 17.264C80.8143 17.264 79.9983 17.468 79.3263 17.876C78.6783 18.284 78.1503 18.812 77.7423 19.46C77.3583 20.108 77.0703 20.84 76.8783 21.656C76.7103 22.472 76.6263 23.288 76.6263 24.104C76.6263 24.992 76.7223 25.976 76.9143 27.056C77.1063 28.136 77.4183 29.156 77.8503 30.116C78.3063 31.052 78.9063 31.844 79.6503 32.492C80.3943 33.14 81.3303 33.464 82.4583 33.464C83.4183 33.464 84.2343 33.284 84.9063 32.924C85.5783 32.564 86.1183 32.084 86.5263 31.484C86.9343 30.86 87.2223 30.152 87.3903 29.36C87.5823 28.568 87.6783 27.752 87.6783 26.912C87.6783 26.024 87.5823 25.028 87.3903 23.924C87.1983 22.796 86.8743 21.74 86.4183 20.756C85.9863 19.772 85.3863 18.944 84.6183 18.272C83.8743 17.6 82.9263 17.264 81.7743 17.264ZM96.0083 22.628C96.0083 23.348 96.0803 24.14 96.2243 25.004C96.3683 25.868 96.6203 26.684 96.9803 27.452C97.3403 28.22 97.8203 28.868 98.4203 29.396C99.0203 29.9 99.7763 30.152 100.688 30.152C101.456 30.152 102.104 30.008 102.632 29.72C103.16 29.408 103.58 29.012 103.892 28.532C104.228 28.052 104.468 27.5 104.612 26.876C104.756 26.228 104.828 25.568 104.828 24.896C104.828 24.176 104.756 23.372 104.612 22.484C104.468 21.572 104.216 20.732 103.856 19.964C103.496 19.172 103.004 18.512 102.38 17.984C101.78 17.432 101.024 17.156 100.112 17.156C99.3443 17.156 98.6963 17.324 98.1683 17.66C97.6403 17.972 97.2083 18.392 96.8723 18.92C96.5603 19.424 96.3323 20.012 96.1883 20.684C96.0683 21.332 96.0083 21.98 96.0083 22.628ZM116.06 33.392C116.54 33.416 117.044 33.344 117.572 33.176C118.124 32.984 118.628 32.744 119.084 32.456C119.54 32.168 119.912 31.832 120.2 31.448C120.512 31.04 120.668 30.632 120.668 30.224V22.88C119.828 23.168 118.964 23.516 118.076 23.924C117.188 24.332 116.372 24.812 115.628 25.364C114.884 25.916 114.272 26.564 113.792 27.308C113.312 28.052 113.072 28.916 113.072 29.9C113.072 31.076 113.372 31.952 113.972 32.528C114.596 33.08 115.292 33.368 116.06 33.392ZM104.36 17.66C105.392 18.212 106.196 18.992 106.772 20C107.348 21.008 107.636 22.232 107.636 23.672C107.636 25.808 106.976 27.476 105.656 28.676C104.336 29.876 102.584 30.476 100.4 30.476C98.5283 30.476 96.9803 30.032 95.7563 29.144C95.3963 29.696 95.2163 30.056 95.2163 30.224C95.2163 30.416 95.3843 30.596 95.7203 30.764C96.0803 30.932 96.5243 31.088 97.0523 31.232C97.6043 31.376 98.2163 31.52 98.8883 31.664C99.5603 31.784 100.232 31.904 100.904 32.024C101.576 32.12 102.2 32.228 102.776 32.348C103.376 32.444 103.856 32.528 104.216 32.6C104.864 32.744 105.476 32.948 106.052 33.212C106.652 33.452 107.18 33.764 107.636 34.148C108.116 34.532 108.488 34.988 108.752 35.516C109.016 36.044 109.148 36.668 109.148 37.388C109.124 38.348 108.884 39.2 108.428 39.944C107.972 40.688 107.36 41.312 106.592 41.816C105.848 42.32 104.984 42.692 104 42.932C103.04 43.196 102.044 43.328 101.012 43.328C100.34 43.328 99.5843 43.268 98.7443 43.148C97.9283 43.052 97.1243 42.884 96.3323 42.644C95.5403 42.404 94.8323 42.08 94.2083 41.672C93.5843 41.288 93.1403 40.82 92.8763 40.268V35.984C93.1163 36.992 93.4883 37.916 93.9923 38.756C94.4963 39.62 95.1083 40.352 95.8283 40.952C96.5483 41.576 97.3763 42.056 98.3123 42.392C99.2723 42.752 100.328 42.932 101.48 42.932C102.104 42.932 102.728 42.86 103.352 42.716C104 42.596 104.588 42.38 105.116 42.068C105.644 41.78 106.064 41.372 106.376 40.844C106.712 40.316 106.88 39.656 106.88 38.864C106.88 37.904 106.484 37.1 105.692 36.452C104.924 35.828 103.532 35.276 101.516 34.796C101.18 34.724 100.7 34.616 100.076 34.472C99.4523 34.352 98.7683 34.22 98.0243 34.076C97.2803 33.932 96.5363 33.776 95.7923 33.608C95.0723 33.464 94.4603 33.332 93.9563 33.212C93.4523 33.092 93.1643 32.936 93.0923 32.744C93.0203 32.528 93.1403 32.204 93.4523 31.772L95.4683 28.928C94.7483 28.328 94.1843 27.596 93.7763 26.732C93.3923 25.844 93.2003 24.824 93.2003 23.672C93.2003 22.64 93.3683 21.704 93.7043 20.864C94.0643 20 94.5563 19.268 95.1803 18.668C95.8043 18.068 96.5603 17.6 97.4483 17.264C98.3363 16.928 99.3203 16.76 100.4 16.76C101.72 16.76 102.92 17 104 17.48L104.36 17.66ZM104.9 18.02C106.436 16.844 108.224 16.256 110.264 16.256C111.056 16.256 111.764 16.388 112.388 16.652C113.012 16.892 113.468 17.252 113.756 17.732C114.044 18.164 114.14 18.56 114.044 18.92C113.948 19.28 113.756 19.556 113.468 19.748C113.204 19.916 112.892 19.976 112.532 19.928C112.172 19.88 111.86 19.664 111.596 19.28C111.164 18.632 110.72 18.092 110.264 17.66C109.808 17.228 109.208 16.988 108.464 16.94C107.864 16.916 107.24 17.024 106.592 17.264C105.968 17.48 105.404 17.732 104.9 18.02ZM115.592 17.336C116.312 16.976 117.104 16.796 117.968 16.796C118.712 16.796 119.408 16.904 120.056 17.12C121.136 17.48 121.952 18.116 122.504 19.028C123.08 19.916 123.368 21.08 123.368 22.52V30.656C123.368 31.136 123.44 31.58 123.584 31.988C123.752 32.372 124.148 32.552 124.772 32.528C124.916 32.528 125.072 32.504 125.24 32.456C125.408 32.384 125.564 32.276 125.708 32.132V32.312C125.492 32.696 125.144 33.02 124.664 33.284C124.184 33.548 123.632 33.68 123.008 33.68C122.576 33.68 122.216 33.596 121.928 33.428C121.64 33.26 121.4 33.056 121.208 32.816C121.04 32.576 120.92 32.336 120.848 32.096C120.776 31.832 120.74 31.616 120.74 31.448C120.38 31.856 119.996 32.216 119.588 32.528C119.204 32.816 118.76 33.068 118.256 33.284C117.776 33.5 117.212 33.656 116.564 33.752C115.94 33.872 115.208 33.92 114.368 33.896C113.744 33.872 113.168 33.776 112.64 33.608C112.112 33.464 111.68 33.248 111.344 32.96C110.984 32.648 110.708 32.288 110.516 31.88C110.348 31.472 110.252 31.028 110.228 30.548C110.204 29.852 110.348 29.156 110.66 28.46C110.972 27.764 111.404 27.2 111.956 26.768C112.772 26.12 113.564 25.616 114.332 25.256C115.124 24.896 115.892 24.56 116.636 24.248C117.404 23.936 118.064 23.636 118.616 23.348C119.168 23.06 119.612 22.76 119.948 22.448C120.284 22.112 120.524 21.74 120.668 21.332C120.836 20.9 120.92 20.396 120.92 19.82C120.896 19.268 120.764 18.812 120.524 18.452C120.308 18.068 120.02 17.756 119.66 17.516C119.372 17.324 119.036 17.192 118.652 17.12C118.292 17.048 117.908 17.024 117.5 17.048C117.164 17.048 116.828 17.084 116.492 17.156C116.18 17.204 115.88 17.288 115.592 17.408V17.336Z" fill="url(#paint0_linear_1_31)"/>
<path d="M0.756 33.392V32.592H-0.044V33.392H0.756ZM1.332 33.248L1.03489 32.5052L1.02088 32.5108L1.00709 32.517L1.332 33.248ZM1.98 32.816L1.44851 32.2181L1.43094 32.2337L1.41431 32.2503L1.98 32.816ZM2.484 32.096L1.76846 31.7382L1.75614 31.7629L1.74554 31.7883L2.484 32.096ZM2.484 9.92L1.74554 10.2277L1.76164 10.2663L1.78168 10.3031L2.484 9.92ZM2.016 9.164L1.38452 9.65515L1.40063 9.67587L1.41807 9.69549L2.016 9.164ZM1.404 8.624L0.960241 9.28964L0.97608 9.3002L0.992404 9.30999L1.404 8.624ZM0.828 8.408H0.0280001V9.208H0.828V8.408ZM0.828 8.3V7.5H0.0280001V8.3H0.828ZM18.252 8.3L19.0357 8.13924L18.9046 7.5H18.252V8.3ZM19.116 12.512L18.4431 12.9446L19.8997 12.3512L19.116 12.512ZM18.18 11.36L17.5821 11.8915L17.5901 11.9005L17.5984 11.9093L18.18 11.36ZM16.884 10.136L16.3506 10.7322L16.367 10.7469L16.3842 10.7607L16.884 10.136ZM15.372 9.128L14.9889 9.83032L15.0076 9.84052L15.0268 9.84971L15.372 9.128ZM6.012 9.236L6.5388 9.83806L6.54914 9.82902L6.55915 9.81963L6.012 9.236ZM6.012 19.892L5.46485 20.4756L5.47486 20.485L5.4852 20.4941L6.012 19.892ZM13.644 20.252L13.8009 21.0365L13.8196 21.0327L13.838 21.0281L13.644 20.252ZM14.76 19.784L14.3162 19.1184L14.3027 19.1274L14.2895 19.137L14.76 19.784ZM15.372 19.064L16.1105 19.3717L16.1147 19.3615L16.1187 19.3512L15.372 19.064ZM15.624 17.984V17.184H14.9126L14.8295 17.8905L15.624 17.984ZM15.696 17.984H16.496V17.184H15.696V17.984ZM15.696 23.636V24.436H16.496V23.636H15.696ZM15.624 23.636L14.8349 23.7675L14.9463 24.436H15.624V23.636ZM15.336 22.484L14.5771 22.737L14.5797 22.7451L14.5826 22.7531L15.336 22.484ZM14.76 21.584L14.1943 22.1497L14.2078 22.1631L14.2219 22.176L14.76 21.584ZM13.644 21.008L13.4141 21.7743L13.4319 21.7796L13.45 21.7841L13.644 21.008ZM5.436 20.792V19.992H4.636V20.792H5.436ZM5.616 32.096L4.87754 32.4037L4.88814 32.4291L4.90046 32.4538L5.616 32.096ZM6.12 32.816L6.68569 32.2503L6.12 32.816ZM6.732 33.248L6.40709 33.979L6.732 33.248ZM7.344 33.392H8.144V32.592H7.344V33.392ZM7.344 33.5V34.3H8.144V33.5H7.344ZM0.756 33.5H-0.044V34.3H0.756V33.5ZM0.756 34.192C1.07173 34.192 1.37737 34.1033 1.65691 33.979L1.00709 32.517C0.854626 32.5847 0.776269 32.592 0.756 32.592V34.192ZM1.62911 33.9908C1.97475 33.8525 2.28101 33.6464 2.54569 33.3817L1.41431 32.2503C1.29499 32.3696 1.16925 32.4515 1.03489 32.5052L1.62911 33.9908ZM2.51149 33.4139C2.82445 33.1357 3.05993 32.7938 3.22246 32.4037L1.74554 31.7883C1.66807 31.9742 1.56755 32.1123 1.44851 32.2181L2.51149 33.4139ZM3.19954 32.4538C3.4088 32.0353 3.5 31.5725 3.5 31.088H1.9C1.9 31.3715 1.8472 31.5807 1.76846 31.7382L3.19954 32.4538ZM3.5 31.088V10.676H1.9V31.088H3.5ZM3.5 10.676C3.5 10.2724 3.37848 9.88922 3.18632 9.53692L1.78168 10.3031C1.87752 10.4788 1.9 10.5996 1.9 10.676H3.5ZM3.22246 9.61231C3.07106 9.24895 2.86937 8.91988 2.61393 8.63251L1.41807 9.69549C1.54663 9.84011 1.65694 10.015 1.74554 10.2277L3.22246 9.61231ZM2.64748 8.67285C2.41745 8.37709 2.13832 8.13164 1.8156 7.938L0.992404 9.30999C1.14968 9.40436 1.27855 9.51891 1.38452 9.65515L2.64748 8.67285ZM1.84776 7.95836C1.56679 7.77104 1.21836 7.608 0.828 7.608V9.208C0.797517 9.208 0.791736 9.20155 0.817102 9.21106C0.843016 9.22078 0.890378 9.24306 0.960241 9.28964L1.84776 7.95836ZM1.628 8.408V8.3H0.0280001V8.408H1.628ZM0.828 9.1H18.252V7.5H0.828V9.1ZM17.4683 8.46075L18.3323 12.6728L19.8997 12.3512L19.0357 8.13924L17.4683 8.46075ZM19.7889 12.0794C19.5366 11.6869 19.1889 11.2631 18.7616 10.8107L17.5984 11.9093C17.9871 12.3209 18.2634 12.6651 18.4431 12.9446L19.7889 12.0794ZM18.7779 10.8285C18.3621 10.3607 17.8968 9.92177 17.3838 9.5113L16.3842 10.7607C16.8312 11.1182 17.2299 11.4953 17.5821 11.8915L18.7779 10.8285ZM17.4174 9.5398C16.9049 9.08126 16.3376 8.703 15.7172 8.40629L15.0268 9.84971C15.5104 10.081 15.9511 10.3747 16.3506 10.7322L17.4174 9.5398ZM15.7551 8.42568C15.1322 8.08595 14.4855 7.896 13.824 7.896V9.496C14.1705 9.496 14.5558 9.59405 14.9889 9.83032L15.7551 8.42568ZM13.824 7.896H7.632V9.496H13.824V7.896ZM7.632 7.896C6.79997 7.896 6.0398 8.11335 5.46485 8.65237L6.55915 9.81963C6.7522 9.63865 7.07203 9.496 7.632 9.496V7.896ZM5.4852 8.63394C4.88952 9.15516 4.636 9.87723 4.636 10.676H6.236C6.236 10.2268 6.36648 9.98884 6.5388 9.83806L5.4852 8.63394ZM4.636 10.676V18.416H6.236V10.676H4.636ZM4.636 18.416C4.636 19.2166 4.88969 19.9364 5.46485 20.4756L6.55915 19.3084C6.36631 19.1276 6.236 18.8634 6.236 18.416H4.636ZM5.4852 20.4941C6.06075 20.9977 6.81311 21.196 7.632 21.196V19.596C7.05889 19.596 6.73125 19.4583 6.5388 19.2899L5.4852 20.4941ZM7.632 21.196H11.772V19.596H7.632V21.196ZM11.772 21.196C12.5666 21.196 13.2487 21.1469 13.8009 21.0365L13.4871 19.4675C13.0793 19.5491 12.5134 19.596 11.772 19.596V21.196ZM13.838 21.0281C14.3714 20.8948 14.8521 20.7062 15.2305 20.431L14.2895 19.137C14.1399 19.2458 13.8766 19.3692 13.45 19.4759L13.838 21.0281ZM15.2038 20.4496C15.6082 20.18 15.9232 19.8212 16.1105 19.3717L14.6335 18.7563C14.5808 18.8828 14.4878 19.004 14.3162 19.1184L15.2038 20.4496ZM16.1187 19.3512C16.2674 18.9646 16.3644 18.5373 16.4185 18.0775L14.8295 17.8905C14.7876 18.2467 14.7166 18.5394 14.6253 18.7768L16.1187 19.3512ZM15.624 18.784H15.696V17.184H15.624V18.784ZM14.896 17.984V23.636H16.496V17.984H14.896ZM15.696 22.836H15.624V24.436H15.696V22.836ZM16.4131 23.5045C16.335 23.0358 16.2285 22.6043 16.0894 22.2149L14.5826 22.7531C14.6835 23.0357 14.769 23.3722 14.8349 23.7675L16.4131 23.5045ZM16.0949 22.231C15.9345 21.7495 15.67 21.3301 15.2981 20.992L14.2219 22.176C14.378 22.3179 14.4976 22.4985 14.5771 22.737L16.0949 22.231ZM15.3257 21.0183C14.931 20.6236 14.4142 20.3759 13.838 20.2319L13.45 21.7841C13.8338 21.8801 14.061 22.0164 14.1943 22.1497L15.3257 21.0183ZM13.8739 20.2417C13.2908 20.0668 12.5811 19.992 11.772 19.992V21.592C12.4989 21.592 13.0372 21.6612 13.4141 21.7743L13.8739 20.2417ZM11.772 19.992H5.436V21.592H11.772V19.992ZM4.636 20.792V31.088H6.236V20.792H4.636ZM4.636 31.088C4.636 31.554 4.70871 31.9985 4.87754 32.4037L6.35446 31.7883C6.28329 31.6175 6.236 31.39 6.236 31.088H4.636ZM4.90046 32.4538C5.07596 32.8048 5.29142 33.1188 5.55431 33.3817L6.68569 32.2503C6.56458 32.1292 6.44404 31.9632 6.33154 31.7382L4.90046 32.4538ZM5.55431 33.3817C5.80554 33.6329 6.08906 33.8377 6.40709 33.979L7.05691 32.517C6.94294 32.4663 6.81846 32.3831 6.68569 32.2503L5.55431 33.3817ZM6.40709 33.979C6.70234 34.1103 7.01734 34.192 7.344 34.192V32.592C7.28666 32.592 7.19366 32.5777 7.05691 32.517L6.40709 33.979ZM6.544 33.392V33.5H8.144V33.392H6.544ZM7.344 32.7H0.756V34.3H7.344V32.7ZM1.556 33.5V33.392H-0.044V33.5H1.556ZM22.0047 8.3V7.5H21.3522L21.221 8.13924L22.0047 8.3ZM42.1647 8.3L42.9471 8.13283L42.8118 7.5H42.1647V8.3ZM43.0647 12.512L42.4137 12.977L43.8471 12.3448L43.0647 12.512ZM42.1287 11.36L41.5308 11.8915V11.8915L42.1287 11.36ZM40.8327 10.136L40.3146 10.7456L40.3237 10.7533L40.333 10.7607L40.8327 10.136ZM39.2847 9.128L38.9016 9.83032L38.9203 9.84052L38.9396 9.84971L39.2847 9.128ZM34.0287 9.236L34.5555 9.83806L34.5659 9.82902L34.5759 9.81963L34.0287 9.236ZM33.6327 32.096L32.8943 32.4037L32.9049 32.4291L32.9172 32.4538L33.6327 32.096ZM34.1367 32.816L34.7024 32.2503L34.1367 32.816ZM34.7487 33.248L34.4238 33.979L34.7487 33.248ZM35.3607 33.392H36.1607V32.592H35.3607V33.392ZM35.3607 33.5V34.3H36.1607V33.5H35.3607ZM28.8087 33.5H28.0087V34.3H28.8087V33.5ZM28.8087 33.392V32.592H28.0087V33.392H28.8087ZM29.3847 33.248L29.0876 32.5052L29.0736 32.5108L29.0598 32.517L29.3847 33.248ZM30.0327 32.816L29.467 32.2503L30.0327 32.816ZM30.5007 32.096L29.7852 31.7382L29.7729 31.7629L29.7623 31.7883L30.5007 32.096ZM30.1407 9.236L29.5936 9.81963L29.6036 9.82902L29.6139 9.83806L30.1407 9.236ZM24.8487 9.128L25.2065 9.84365L25.2188 9.83727L24.8487 9.128ZM23.3367 10.136L23.852 10.7479L23.8548 10.7456L23.3367 10.136ZM22.0407 11.36L21.4591 10.8107L21.4508 10.8195L21.4428 10.8285L22.0407 11.36ZM21.1407 12.512L20.357 12.3512L21.8137 12.9446L21.1407 12.512ZM22.0047 9.1H42.1647V7.5H22.0047V9.1ZM41.3824 8.46716L42.2824 12.6792L43.8471 12.3448L42.9471 8.13283L41.3824 8.46716ZM43.7157 12.047C43.4542 11.6808 43.1227 11.274 42.7266 10.8285L41.5308 11.8915C41.9028 12.31 42.1953 12.6712 42.4137 12.977L43.7157 12.047ZM42.7266 10.8285C42.3108 10.3607 41.8456 9.92177 41.3325 9.5113L40.333 10.7607C40.7799 11.1182 41.1787 11.4953 41.5308 11.8915L42.7266 10.8285ZM41.3508 9.52645C40.8198 9.07509 40.246 8.70093 39.6299 8.40629L38.9396 9.84971C39.4275 10.0831 39.8856 10.3809 40.3146 10.7456L41.3508 9.52645ZM39.6678 8.42568C39.045 8.08595 38.3982 7.896 37.7367 7.896V9.496C38.0832 9.496 38.4685 9.59405 38.9016 9.83032L39.6678 8.42568ZM37.7367 7.896H35.6487V9.496H37.7367V7.896ZM35.6487 7.896C34.8167 7.896 34.0565 8.11335 33.4816 8.65237L34.5759 9.81963C34.7689 9.63865 35.0888 9.496 35.6487 9.496V7.896ZM33.5019 8.63394C32.9062 9.15516 32.6527 9.87723 32.6527 10.676H34.2527C34.2527 10.2268 34.3832 9.98884 34.5555 9.83806L33.5019 8.63394ZM32.6527 10.676V31.088H34.2527V10.676H32.6527ZM32.6527 31.088C32.6527 31.554 32.7254 31.9985 32.8943 32.4037L34.3712 31.7883C34.3 31.6175 34.2527 31.39 34.2527 31.088H32.6527ZM32.9172 32.4538C33.0927 32.8048 33.3081 33.1188 33.571 33.3817L34.7024 32.2503C34.5813 32.1292 34.4608 31.9632 34.3483 31.7382L32.9172 32.4538ZM33.571 33.3817C33.8223 33.6329 34.1058 33.8377 34.4238 33.979L35.0736 32.517C34.9597 32.4663 34.8352 32.3831 34.7024 32.2503L33.571 33.3817ZM34.4238 33.979C34.7191 34.1103 35.0341 34.192 35.3607 34.192V32.592C35.3034 32.592 35.2104 32.5777 35.0736 32.517L34.4238 33.979ZM34.5607 33.392V33.5H36.1607V33.392H34.5607ZM35.3607 32.7H28.8087V34.3H35.3607V32.7ZM29.6087 33.5V33.392H28.0087V33.5H29.6087ZM28.8087 34.192C29.1245 34.192 29.4301 34.1033 29.7096 33.979L29.0598 32.517C28.9073 32.5847 28.829 32.592 28.8087 32.592V34.192ZM29.6818 33.9908C30.0275 33.8525 30.3337 33.6464 30.5984 33.3817L29.467 32.2503C29.3477 32.3696 29.222 32.4515 29.0876 32.5052L29.6818 33.9908ZM30.5984 33.3817C30.8745 33.1056 31.0849 32.7739 31.2392 32.4037L29.7623 31.7883C29.6765 31.9941 29.575 32.1424 29.467 32.2503L30.5984 33.3817ZM31.2163 32.4538C31.4255 32.0353 31.5167 31.5725 31.5167 31.088H29.9167C29.9167 31.3715 29.8639 31.5807 29.7852 31.7382L31.2163 32.4538ZM31.5167 31.088V10.676H29.9167V31.088H31.5167ZM31.5167 10.676C31.5167 9.87723 31.2632 9.15516 30.6675 8.63394L29.6139 9.83806C29.7862 9.98884 29.9167 10.2268 29.9167 10.676H31.5167ZM30.6879 8.65237C30.1129 8.11335 29.3528 7.896 28.5207 7.896V9.496C29.0807 9.496 29.4005 9.63865 29.5936 9.81963L30.6879 8.65237ZM28.5207 7.896H26.4327V9.496H28.5207V7.896ZM26.4327 7.896C25.773 7.896 25.1185 8.08493 24.4787 8.41873L25.2188 9.83727C25.683 9.59507 26.0844 9.496 26.4327 9.496V7.896ZM24.4909 8.41246C23.9017 8.70707 23.3443 9.07958 22.8186 9.52645L23.8548 10.7456C24.2891 10.3764 24.7397 10.0769 25.2065 9.84354L24.4909 8.41246ZM22.8214 9.52407C22.3422 9.92761 21.8881 10.3565 21.4591 10.8107L22.6223 11.9093C23.0094 11.4995 23.4192 11.1124 23.852 10.7479L22.8214 9.52407ZM21.4428 10.8285C21.0423 11.2791 20.7137 11.6969 20.4678 12.0794L21.8137 12.9446C21.9998 12.6551 22.2711 12.3049 22.6386 11.8915L21.4428 10.8285ZM21.9244 12.6728L22.7884 8.46075L21.221 8.13924L20.357 12.3512L21.9244 12.6728ZM59.2456 8.3H60.0456V7.5H59.2456V8.3ZM59.2456 8.408L59.4517 9.18099L60.0456 9.02262V8.408H59.2456ZM57.9856 9.56L57.2428 9.26289L57.2296 9.29598L57.2193 9.33012L57.9856 9.56ZM57.9136 10.28L57.1175 10.3596L57.1185 10.3683L57.9136 10.28ZM58.0576 10.82L57.3421 11.1778L57.3498 11.1933L57.3583 11.2085L58.0576 10.82ZM63.2776 20.216L63.982 19.8367L63.9769 19.8275L63.2776 20.216ZM64.0696 21.62L63.3883 22.0393L63.4075 22.0706L63.4296 22.1L64.0696 21.62ZM65.1856 21.62L64.52 21.1762L64.5067 21.1962L64.4946 21.2169L65.1856 21.62ZM65.9416 20.288L65.2347 19.9134L65.2318 19.9189L65.9416 20.288ZM70.7296 11.252L71.4365 11.6266L71.4565 11.5888L71.4724 11.5491L70.7296 11.252ZM70.8376 10.208L70.0456 10.3211L70.0496 10.3485L70.0554 10.3756L70.8376 10.208ZM70.4776 9.308L69.8027 9.7375L69.816 9.75845L69.8306 9.77853L70.4776 9.308ZM69.8656 8.66L70.3244 8.00461V8.00461L69.8656 8.66ZM69.1816 8.408H68.3816V9.208H69.1816V8.408ZM69.1816 8.3V7.5H68.3816V8.3H69.1816ZM74.3296 8.3H75.1296V7.5H74.3296V8.3ZM74.3296 8.408L74.4667 9.19617L75.1296 9.08088V8.408H74.3296ZM72.6376 9.344L72.097 8.75428L72.0908 8.76002L72.0846 8.76589L72.6376 9.344ZM71.0896 11.432L70.3903 11.0435L70.3856 11.0518L70.3812 11.0603L71.0896 11.432ZM66.1216 20.9L65.4132 20.5283L65.4096 20.5352L65.4061 20.5422L66.1216 20.9ZM65.5456 22.124L64.8127 21.8033L64.8041 21.823L64.7965 21.8431L65.5456 22.124ZM65.1856 23.312L65.9643 23.4952V23.4952L65.1856 23.312ZM65.0776 32.096L64.3391 32.4037L64.3497 32.4291L64.3621 32.4538L65.0776 32.096ZM65.5816 32.816L65.0159 33.3817L65.0325 33.3983L65.0501 33.4139L65.5816 32.816ZM66.2296 33.248L65.9047 33.979L66.2296 33.248ZM66.8416 33.392H67.6416V32.592H66.8416V33.392ZM66.8416 33.5V34.3H67.6416V33.5H66.8416ZM60.2536 33.5H59.4536V34.3H60.2536V33.5ZM60.2536 33.392V32.592H59.4536V33.392H60.2536ZM60.8296 33.248L60.5325 32.5052L60.5185 32.5108L60.5047 32.517L60.8296 33.248ZM61.4776 32.816L60.9461 32.2181L60.9285 32.2337L60.9119 32.2503L61.4776 32.816ZM61.9816 32.096L61.2661 31.7382L61.2537 31.7629L61.2431 31.7883L61.9816 32.096ZM61.9096 23.96L61.1243 24.1127L61.1268 24.1255L61.1297 24.1383L61.9096 23.96ZM60.8656 21.152L61.5743 20.7808L61.5681 20.769L61.5615 20.7575L60.8656 21.152ZM55.0696 10.928L55.7655 10.5335L55.7653 10.5331L55.0696 10.928ZM53.4136 9.02L52.9637 9.68154L52.973 9.68781L52.9824 9.69382L53.4136 9.02ZM52.0456 8.408H51.2456V9.208H52.0456V8.408ZM52.0456 8.3V7.5H51.2456V8.3H52.0456ZM58.4456 8.3V8.408H60.0456V8.3H58.4456ZM59.0395 7.63501C58.5714 7.75983 58.1421 7.9818 57.8197 8.34451L59.0155 9.40749C59.0771 9.3382 59.1998 9.24817 59.4517 9.18099L59.0395 7.63501ZM57.8197 8.34451C57.5734 8.62156 57.377 8.92745 57.2428 9.26289L58.7284 9.85711C58.7862 9.71255 58.8778 9.56243 59.0155 9.40749L57.8197 8.34451ZM57.2193 9.33012C57.1185 9.66637 57.0827 10.0114 57.1176 10.3596L58.7096 10.2004C58.6964 10.0686 58.7087 9.93363 58.7519 9.78988L57.2193 9.33012ZM57.1185 10.3683C57.1495 10.6474 57.2159 10.9255 57.3421 11.1778L58.7731 10.4622C58.7552 10.4265 58.7257 10.3446 58.7087 10.1917L57.1185 10.3683ZM57.3583 11.2085L62.5783 20.6045L63.9769 19.8275L58.7569 10.4315L57.3583 11.2085ZM62.5732 20.5953C62.9111 21.2228 63.1839 21.7071 63.3883 22.0393L64.7509 21.2007C64.5713 20.9089 64.3161 20.4572 63.982 19.8367L62.5732 20.5953ZM63.4296 22.1C63.5628 22.2776 63.7168 22.4499 63.8956 22.584C64.0726 22.7167 64.3283 22.852 64.6456 22.852V21.252C64.7198 21.252 64.7771 21.2682 64.8122 21.2822C64.8457 21.2956 64.8602 21.3074 64.8556 21.304C64.8513 21.3008 64.8355 21.2881 64.8087 21.2597C64.7823 21.2317 64.7491 21.1927 64.7096 21.14L63.4296 22.1ZM64.6456 22.852C65.2849 22.852 65.6726 22.3728 65.8766 22.0231L64.4946 21.2169C64.4689 21.261 64.4483 21.2898 64.4343 21.3071C64.4202 21.3247 64.4163 21.3261 64.4248 21.3193C64.4339 21.3121 64.4582 21.2946 64.4986 21.2789C64.5405 21.2627 64.591 21.252 64.6456 21.252V22.852ZM65.8512 22.0638C66.068 21.7386 66.3361 21.2635 66.6514 20.6571L65.2318 19.9189C64.9231 20.5125 64.6872 20.9254 64.52 21.1762L65.8512 22.0638ZM66.6485 20.6626L71.4365 11.6266L70.0227 10.8774L65.2347 19.9134L66.6485 20.6626ZM71.4724 11.5491C71.6676 11.0612 71.7293 10.5512 71.6198 10.0404L70.0554 10.3756C70.0899 10.5368 70.0796 10.7228 69.9868 10.9549L71.4724 11.5491ZM71.6296 10.0949C71.5639 9.63501 71.3964 9.21125 71.1246 8.83746L69.8306 9.77853C69.9428 9.93275 70.0153 10.109 70.0456 10.3211L71.6296 10.0949ZM71.1525 8.8785C70.9319 8.53184 70.6563 8.23699 70.3244 8.00461L69.4068 9.31538C69.5549 9.41901 69.6873 9.55616 69.8027 9.7375L71.1525 8.8785ZM70.3244 8.00461C69.9968 7.77533 69.611 7.608 69.1816 7.608V9.208C69.1842 9.208 69.2544 9.20867 69.4068 9.31538L70.3244 8.00461ZM69.9816 8.408V8.3H68.3816V8.408H69.9816ZM69.1816 9.1H74.3296V7.5H69.1816V9.1ZM73.5296 8.3V8.408H75.1296V8.3H73.5296ZM74.1925 7.61983C73.4414 7.75046 72.743 8.16209 72.097 8.75428L73.1782 9.93372C73.6842 9.46991 74.1138 9.25753 74.4667 9.19617L74.1925 7.61983ZM72.0846 8.76589C71.4604 9.36292 70.8984 10.1288 70.3903 11.0435L71.7889 11.8205C72.2407 11.0072 72.7107 10.3811 73.1906 9.92211L72.0846 8.76589ZM70.3812 11.0603L65.4132 20.5283L66.83 21.2717L71.798 11.8037L70.3812 11.0603ZM65.4061 20.5422C65.1848 20.9847 64.9869 21.4051 64.8127 21.8033L66.2785 22.4447C66.4403 22.0749 66.6264 21.6793 66.8371 21.2578L65.4061 20.5422ZM64.7965 21.8431C64.6403 22.2597 64.5105 22.6883 64.4069 23.1288L65.9643 23.4952C66.0527 23.1197 66.1629 22.7563 66.2947 22.4049L64.7965 21.8431ZM64.4069 23.1288C64.3017 23.5755 64.2245 24.0546 64.1736 24.5644L65.7656 24.7236C65.8106 24.2734 65.8774 23.8645 65.9643 23.4952L64.4069 23.1288ZM64.1736 24.5644C64.1223 25.0772 64.0976 25.6567 64.0976 26.3H65.6976C65.6976 25.6953 65.7209 25.1708 65.7656 24.7236L64.1736 24.5644ZM64.0976 26.3V31.088H65.6976V26.3H64.0976ZM64.0976 31.088C64.0976 31.554 64.1703 31.9985 64.3391 32.4037L65.8161 31.7883C65.7449 31.6175 65.6976 31.39 65.6976 31.088H64.0976ZM64.3621 32.4538C64.5376 32.8048 64.753 33.1188 65.0159 33.3817L66.1473 32.2503C66.0262 32.1292 65.9056 31.9632 65.7931 31.7382L64.3621 32.4538ZM65.0501 33.4139C65.3145 33.649 65.5988 33.8431 65.9047 33.979L66.5545 32.517C66.4284 32.4609 66.2807 32.367 66.1131 32.2181L65.0501 33.4139ZM65.9047 33.979C66.1999 34.1103 66.5149 34.192 66.8416 34.192V32.592C66.7842 32.592 66.6913 32.5777 66.5545 32.517L65.9047 33.979ZM66.0416 33.392V33.5H67.6416V33.392H66.0416ZM66.8416 32.7H60.2536V34.3H66.8416V32.7ZM61.0536 33.5V33.392H59.4536V33.5H61.0536ZM60.2536 34.192C60.5693 34.192 60.875 34.1033 61.1545 33.979L60.5047 32.517C60.3522 32.5847 60.2739 32.592 60.2536 32.592V34.192ZM61.1267 33.9908C61.4723 33.8525 61.7786 33.6464 62.0433 33.3817L60.9119 32.2503C60.7926 32.3696 60.6668 32.4515 60.5325 32.5052L61.1267 33.9908ZM62.0091 33.4139C62.322 33.1357 62.5575 32.7938 62.7201 32.4037L61.2431 31.7883C61.1657 31.9742 61.0651 32.1123 60.9461 32.2181L62.0091 33.4139ZM62.6971 32.4538C62.9064 32.0353 62.9976 31.5725 62.9976 31.088H61.3976C61.3976 31.3715 61.3448 31.5807 61.2661 31.7382L62.6971 32.4538ZM62.9976 31.088V26.3H61.3976V31.088H62.9976ZM62.9976 26.3C62.9976 25.5097 62.8923 24.6692 62.6895 23.7817L61.1297 24.1383C61.3109 24.9308 61.3976 25.6503 61.3976 26.3H62.9976ZM62.6949 23.8073C62.5085 22.8486 62.1283 21.8386 61.5743 20.7808L60.1569 21.5232C60.6589 22.4814 60.9747 23.3434 61.1243 24.1127L62.6949 23.8073ZM61.5615 20.7575L55.7655 10.5335L54.3736 11.3225L60.1696 21.5465L61.5615 20.7575ZM55.7653 10.5331C55.2232 9.57785 54.5915 8.82404 53.8448 8.34618L52.9824 9.69382C53.4357 9.98396 53.908 10.5021 54.3738 11.3229L55.7653 10.5331ZM53.8634 8.35846C53.5403 8.13871 53.2338 7.95846 52.9483 7.83074C52.6722 7.70725 52.3617 7.608 52.0456 7.608V9.208C52.0415 9.208 52.1149 9.21075 52.2949 9.29125C52.4654 9.36754 52.6869 9.49329 52.9637 9.68154L53.8634 8.35846ZM52.8456 8.408V8.3H51.2456V8.408H52.8456ZM52.0456 9.1H59.2456V7.5H52.0456V9.1ZM74.4663 21.98L73.7144 21.7066L74.4663 21.98ZM76.0863 19.244L75.4943 18.7059L75.4935 18.7068L76.0863 19.244ZM78.6783 17.408L78.3631 16.6727L78.6783 17.408ZM85.6263 17.408L85.3174 18.146L85.3247 18.149L85.3322 18.152L85.6263 17.408ZM88.2183 19.172L87.6255 19.7092L87.6343 19.7189L87.6434 19.7283L88.2183 19.172ZM89.8383 21.872L90.5955 21.6139V21.6139L89.8383 21.872ZM89.8023 28.892L89.0504 28.6186L89.0469 28.6285L89.8023 28.892ZM88.1823 31.556L87.6073 30.9996L87.5981 31.0095L88.1823 31.556ZM85.5903 33.284L85.2961 32.54L85.2901 32.5424L85.5903 33.284ZM78.6423 33.284L78.3421 34.0256L78.3482 34.028L78.6423 33.284ZM76.0503 31.556L75.466 32.1026L75.4754 32.1123L76.0503 31.556ZM74.4303 28.892L73.6731 29.1501L73.6766 29.1606L73.6805 29.171L74.4303 28.892ZM79.3263 17.876L78.911 17.1921L78.9 17.199L79.3263 17.876ZM77.7423 19.46L77.0653 19.0337L77.0595 19.0429L77.054 19.0522L77.7423 19.46ZM76.8783 21.656L76.0995 21.4728L76.097 21.4837L76.0947 21.4947L76.8783 21.656ZM77.8503 30.116L77.1207 30.4443L77.1257 30.4554L77.1311 30.4664L77.8503 30.116ZM79.6503 32.492L79.1249 33.0953L79.6503 32.492ZM84.9063 32.924L85.2841 33.6292L84.9063 32.924ZM86.5263 31.484L87.1878 31.9338L87.1919 31.9279L87.1959 31.9218L86.5263 31.484ZM87.3903 29.36L86.6128 29.1715L86.6101 29.1827L86.6077 29.194L87.3903 29.36ZM87.3903 23.924L86.6016 24.0582L86.6021 24.0611L87.3903 23.924ZM86.4183 20.756L85.6858 21.0776L85.689 21.085L85.6924 21.0924L86.4183 20.756ZM84.6183 18.272L84.082 18.8658L84.0915 18.8741L84.6183 18.272ZM74.6903 25.4C74.6903 24.2609 74.8687 23.2143 75.2181 22.2534L73.7144 21.7066C73.2959 22.8577 73.0903 24.0911 73.0903 25.4H74.6903ZM75.2181 22.2534C75.5697 21.2866 76.0583 20.4662 76.6791 19.7812L75.4935 18.7068C74.7222 19.5578 74.1309 20.5614 73.7144 21.7066L75.2181 22.2534ZM76.6782 19.7821C77.3192 19.077 78.0881 18.5313 78.9934 18.1433L78.3631 16.6727C77.2525 17.1487 76.2933 17.8269 75.4943 18.7059L76.6782 19.7821ZM78.9934 18.1433C79.8872 17.7603 80.9175 17.56 82.0983 17.56V15.96C80.7351 15.96 79.4854 16.1917 78.3631 16.6727L78.9934 18.1433ZM82.0983 17.56C83.331 17.56 84.3992 17.7616 85.3174 18.146L85.9352 16.67C84.7894 16.1904 83.5056 15.96 82.0983 15.96V17.56ZM85.3322 18.152C86.2583 18.5181 87.0176 19.0385 87.6255 19.7092L88.8111 18.6348C88.0269 17.7695 87.0583 17.1139 85.9204 16.664L85.3322 18.152ZM87.6434 19.7283C88.2752 20.3811 88.7561 21.177 89.0811 22.1301L90.5955 21.6139C90.2004 20.455 89.6014 19.4509 88.7932 18.6157L87.6434 19.7283ZM89.0811 22.1301C89.4086 23.0908 89.5783 24.1779 89.5783 25.4H91.1783C91.1783 24.0301 90.988 22.7652 90.5955 21.6139L89.0811 22.1301ZM89.5783 25.4C89.5783 26.5909 89.3987 27.661 89.0504 28.6186L90.5541 29.1654C90.9739 28.011 91.1783 26.7531 91.1783 25.4H89.5783ZM89.0469 28.6285C88.723 29.5572 88.2422 30.3437 87.6074 30.9997L88.7572 32.1123C89.5623 31.2803 90.1616 30.2908 90.5576 29.1555L89.0469 28.6285ZM87.5981 31.0095C86.99 31.6595 86.228 32.1716 85.2962 32.54L85.8844 34.028C87.0166 33.5804 87.9826 32.9405 88.7665 32.1025L87.5981 31.0095ZM85.2901 32.5424C84.3939 32.9052 83.3467 33.096 82.1343 33.096V34.696C83.5138 34.696 84.7707 34.4788 85.8904 34.0256L85.2901 32.5424ZM82.1343 33.096C80.9223 33.096 79.8605 32.9053 78.9364 32.54L78.3482 34.028C79.4881 34.4786 80.7542 34.696 82.1343 34.696V33.096ZM78.9424 32.5424C78.0326 32.1742 77.2636 31.6594 76.6252 30.9997L75.4754 32.1123C76.2769 32.9406 77.2359 33.5778 78.3421 34.0256L78.9424 32.5424ZM76.6345 31.0095C76.0165 30.3489 75.5301 29.5538 75.1801 28.613L73.6805 29.171C74.0984 30.2942 74.692 31.2751 75.4661 32.1025L76.6345 31.0095ZM75.1875 28.6339C74.8595 27.6717 74.6903 26.5963 74.6903 25.4H73.0903C73.0903 26.7477 73.2811 28.0003 73.6731 29.1501L75.1875 28.6339ZM81.7743 16.464C80.7002 16.464 79.7333 16.693 78.9111 17.1922L79.7415 18.5598C80.2633 18.243 80.9283 18.064 81.7743 18.064V16.464ZM78.9 17.199C78.1507 17.6708 77.5371 18.2845 77.0653 19.0337L78.4193 19.8862C78.7635 19.3395 79.2058 18.8972 79.7525 18.553L78.9 17.199ZM77.054 19.0522C76.6243 19.7774 76.3081 20.5866 76.0995 21.4728L77.657 21.8392C77.8325 21.0934 78.0923 20.4386 78.4305 19.8678L77.054 19.0522ZM76.0947 21.4947C75.916 22.3626 75.8263 23.2327 75.8263 24.104H77.4263C77.4263 23.3433 77.5045 22.5814 77.6618 21.8173L76.0947 21.4947ZM75.8263 24.104C75.8263 25.0484 75.9282 26.0801 76.1266 27.196L77.7019 26.916C77.5163 25.8719 77.4263 24.9356 77.4263 24.104H75.8263ZM76.1266 27.196C76.3297 28.3382 76.6606 29.4217 77.1207 30.4443L78.5798 29.7877C78.176 28.8903 77.8829 27.9338 77.7019 26.916L76.1266 27.196ZM77.1311 30.4664C77.6314 31.4934 78.2955 32.373 79.1249 33.0953L80.1757 31.8887C79.517 31.315 78.9811 30.6106 78.5695 29.7656L77.1311 30.4664ZM79.1249 33.0953C80.0353 33.8882 81.1666 34.264 82.4583 34.264V32.664C81.494 32.664 80.7533 32.3918 80.1757 31.8887L79.1249 33.0953ZM82.4583 34.264C83.5166 34.264 84.4696 34.0655 85.2841 33.6292L84.5285 32.2188C83.999 32.5025 83.3199 32.664 82.4583 32.664V34.264ZM85.2841 33.6292C86.0639 33.2114 86.7035 32.6461 87.1878 31.9338L85.8647 31.0342C85.533 31.5219 85.0927 31.9166 84.5285 32.2188L85.2841 33.6292ZM87.1959 31.9218C87.6625 31.2081 87.9861 30.4065 88.1729 29.526L86.6077 29.194C86.4585 29.8975 86.2061 30.5119 85.8567 31.0462L87.1959 31.9218ZM88.1678 29.5485C88.3752 28.6929 88.4783 27.8135 88.4783 26.912H86.8783C86.8783 27.6905 86.7894 28.4431 86.6128 29.1715L88.1678 29.5485ZM88.4783 26.912C88.4783 25.968 88.3764 24.925 88.1785 23.7869L86.6021 24.0611C86.7882 25.131 86.8783 26.08 86.8783 26.912H88.4783ZM88.1789 23.7898C87.9757 22.5957 87.6315 21.4714 87.1441 20.4196L85.6924 21.0924C86.117 22.0086 86.4209 22.9963 86.6016 24.0582L88.1789 23.7898ZM87.1508 20.4344C86.6742 19.3488 86.0061 18.4233 85.1451 17.6699L84.0915 18.8741C84.7665 19.4647 85.2984 20.1952 85.6858 21.0776L87.1508 20.4344ZM85.1545 17.6783C84.2416 16.8538 83.0929 16.464 81.7743 16.464V18.064C82.7597 18.064 83.5069 18.3462 84.0821 18.8657L85.1545 17.6783ZM96.2243 25.004L97.0135 24.8725L96.2243 25.004ZM96.9803 27.452L97.7047 27.1125L96.9803 27.452ZM98.4203 29.396L97.8918 29.9966L97.8988 30.0026L97.9058 30.0086L98.4203 29.396ZM102.632 29.72L103.015 30.4223L103.027 30.4157L103.039 30.4087L102.632 29.72ZM103.892 28.532L103.237 28.0732L103.229 28.0845L103.222 28.096L103.892 28.532ZM104.612 26.876L105.392 27.0559L105.393 27.0495L104.612 26.876ZM104.612 22.484L103.822 22.6088L103.823 22.6121L104.612 22.484ZM103.856 19.964L103.128 20.2951L103.132 20.3035L103.856 19.964ZM102.38 17.984L101.839 18.5727L101.851 18.584L101.864 18.5947L102.38 17.984ZM98.1683 17.66L98.5753 18.3487L98.5867 18.342L98.5978 18.3349L98.1683 17.66ZM96.8723 18.92L96.1974 18.4905L96.1921 18.4989L96.8723 18.92ZM96.1883 20.684L95.4061 20.5164L95.4038 20.5273L95.4017 20.5383L96.1883 20.684ZM116.06 33.392L116.1 32.593L116.093 32.5926L116.085 32.5924L116.06 33.392ZM117.572 33.176L117.815 33.9383L117.825 33.9351L117.835 33.9316L117.572 33.176ZM120.2 31.448L119.565 30.962L119.56 30.968L120.2 31.448ZM120.668 22.88H121.468V21.76L120.409 22.1232L120.668 22.88ZM118.076 23.924L118.41 24.6509L118.076 23.924ZM115.628 25.364L115.152 24.7215L115.628 25.364ZM113.792 27.308L113.12 26.8743L113.792 27.308ZM113.972 32.528L113.418 33.1051L113.43 33.1164L113.442 33.1272L113.972 32.528ZM104.36 17.66L104.738 16.9546L104.728 16.9494L104.718 16.9445L104.36 17.66ZM106.772 20L106.078 20.3969L106.772 20ZM105.656 28.676L106.194 29.268L105.656 28.676ZM95.7563 29.144L96.2261 28.4965L95.5456 28.0027L95.0863 28.707L95.7563 29.144ZM95.7203 30.764L95.3626 31.4795L95.3722 31.4844L95.382 31.4889L95.7203 30.764ZM97.0523 31.232L96.8418 32.0039L96.8504 32.0061L97.0523 31.232ZM98.8883 31.664L98.7207 32.4462L98.7342 32.4491L98.7477 32.4515L98.8883 31.664ZM100.904 32.024L100.764 32.8115L100.777 32.814L100.791 32.816L100.904 32.024ZM102.776 32.348L102.613 33.1312L102.631 33.135L102.65 33.138L102.776 32.348ZM104.216 32.6L104.39 31.819L104.382 31.8172L104.373 31.8155L104.216 32.6ZM106.052 33.212L105.719 33.9393L105.737 33.9475L105.755 33.9548L106.052 33.212ZM107.636 34.148L107.121 34.7599L107.129 34.7664L107.137 34.7727L107.636 34.148ZM109.148 37.388L109.948 37.408L109.948 37.398V37.388H109.148ZM106.592 41.816L106.153 41.1471L106.144 41.1537L106.592 41.816ZM104 42.932L103.811 42.1548L103.799 42.1575L103.788 42.1606L104 42.932ZM98.7443 43.148L98.8575 42.356L98.8477 42.3546L98.8378 42.3535L98.7443 43.148ZM96.3323 42.644L96.5643 41.8784L96.3323 42.644ZM94.2083 41.672L94.6461 41.0024L94.637 40.9964L94.6276 40.9907L94.2083 41.672ZM92.8763 40.268H92.0763V40.4495L92.1546 40.6132L92.8763 40.268ZM92.8763 35.984L93.6546 35.7987L92.0763 35.984H92.8763ZM93.9923 38.756L94.6834 38.3529L94.6783 38.3444L93.9923 38.756ZM95.8283 40.952L96.3523 40.3475L96.3464 40.3424L96.3405 40.3374L95.8283 40.952ZM98.3123 42.392L98.5933 41.6429L98.5826 41.639L98.3123 42.392ZM103.352 42.716L103.207 41.9294L103.189 41.9326L103.172 41.9365L103.352 42.716ZM105.116 42.068L104.733 41.3657L104.721 41.3723L104.709 41.3793L105.116 42.068ZM106.376 40.844L105.701 40.4145L105.694 40.4256L105.688 40.437L106.376 40.844ZM105.692 36.452L106.199 35.8328L106.197 35.8311L105.692 36.452ZM101.516 34.796L101.702 34.0178L101.693 34.0157L101.684 34.0138L101.516 34.796ZM100.076 34.472L100.256 33.6925L100.242 33.6892L100.227 33.6864L100.076 34.472ZM98.0243 34.076L97.8723 34.8614L98.0243 34.076ZM95.7923 33.608L95.9686 32.8276L95.9589 32.8255L95.9492 32.8235L95.7923 33.608ZM93.9563 33.212L94.1416 32.4338L93.9563 33.212ZM93.0923 32.744L92.3334 32.997L92.3381 33.011L92.3433 33.0249L93.0923 32.744ZM93.4523 31.772L94.1009 32.2404L94.105 32.2346L93.4523 31.772ZM95.4683 28.928L96.121 29.3906L96.5489 28.7871L95.9805 28.3134L95.4683 28.928ZM93.7763 26.732L93.0421 27.0495L93.0473 27.0617L93.0529 27.0736L93.7763 26.732ZM93.7043 20.864L92.9658 20.5563L92.9616 20.5669L93.7043 20.864ZM95.1803 18.668L94.6259 18.0913V18.0913L95.1803 18.668ZM97.4483 17.264L97.1652 16.5158L97.4483 17.264ZM104 17.48L104.358 16.7645L104.342 16.7563L104.325 16.7489L104 17.48ZM104.9 18.02L104.414 17.3848L105.297 18.7146L104.9 18.02ZM112.388 16.652L112.077 17.3888L112.089 17.3939L112.101 17.3987L112.388 16.652ZM113.756 17.732L113.07 18.1436L113.08 18.1599L113.091 18.1758L113.756 17.732ZM114.044 18.92L113.271 18.7139L114.044 18.92ZM113.468 19.748L113.898 20.4229L113.905 20.4184L113.912 20.4136L113.468 19.748ZM112.532 19.928L112.427 20.721L112.532 19.928ZM111.596 19.28L110.931 19.7238L110.937 19.7332L111.596 19.28ZM108.464 16.94L108.516 16.1417L108.506 16.141L108.496 16.1406L108.464 16.94ZM106.592 17.264L106.854 18.02L106.862 18.0172L106.87 18.0142L106.592 17.264ZM115.592 17.336L115.235 16.6205L114.792 16.8416V17.336H115.592ZM120.056 17.12L119.803 17.8789L120.056 17.12ZM122.504 19.028L121.82 19.4422L121.826 19.4529L121.833 19.4634L122.504 19.028ZM123.584 31.988L122.83 32.2543L122.84 32.2818L122.851 32.3087L123.584 31.988ZM124.772 32.528V31.728H124.757L124.742 31.7286L124.772 32.528ZM125.24 32.456L125.46 33.2252L125.509 33.2113L125.555 33.1913L125.24 32.456ZM125.708 32.132H126.508V30.2006L125.143 31.5663L125.708 32.132ZM125.708 32.312L126.406 32.7042L126.508 32.5216V32.312H125.708ZM124.664 33.284L125.05 33.985L124.664 33.284ZM121.928 33.428L121.525 34.119L121.928 33.428ZM121.208 32.816L120.553 33.2748L120.568 33.2958L120.584 33.3158L121.208 32.816ZM120.848 32.096L120.077 32.3065L120.079 32.3162L120.082 32.3259L120.848 32.096ZM120.74 31.448H121.54V29.3322L120.14 30.9187L120.74 31.448ZM119.588 32.528L120.068 33.168L120.074 33.1635L119.588 32.528ZM118.256 33.284L117.941 32.5487L117.935 32.5515L117.928 32.5545L118.256 33.284ZM116.564 33.752L116.447 32.9606L116.43 32.9632L116.413 32.9664L116.564 33.752ZM114.368 33.896L114.338 34.6954L114.345 34.6957L114.368 33.896ZM112.64 33.608L112.883 32.8457L112.867 32.8406L112.851 32.8362L112.64 33.608ZM111.344 32.96L110.82 33.5646L110.824 33.5674L111.344 32.96ZM110.516 31.88L109.777 32.1846L109.784 32.2028L109.792 32.2206L110.516 31.88ZM110.228 30.548L109.429 30.5756L109.429 30.5879L110.228 30.548ZM110.66 28.46L109.93 28.1328L110.66 28.46ZM111.956 26.768L112.449 27.398L112.454 27.3945L111.956 26.768ZM114.332 25.256L114.001 24.5277L113.993 24.5316L114.332 25.256ZM116.636 24.248L116.335 23.5068L116.327 23.5102L116.636 24.248ZM119.948 22.448L120.493 23.0342L120.504 23.0242L120.514 23.0137L119.948 22.448ZM120.668 21.332L119.923 21.042L119.918 21.0538L119.914 21.0657L120.668 21.332ZM120.92 19.82H121.72V19.8026L121.72 19.7852L120.92 19.82ZM120.524 18.452L119.827 18.8442L119.842 18.8706L119.859 18.8958L120.524 18.452ZM119.66 17.516L120.104 16.8504V16.8504L119.66 17.516ZM118.652 17.12L118.495 17.9045L118.505 17.9063L118.652 17.12ZM117.5 17.048V17.848H117.524L117.547 17.8466L117.5 17.048ZM116.492 17.156L116.614 17.9467L116.637 17.9431L116.66 17.9382L116.492 17.156ZM115.592 17.408H114.792V18.608L115.9 18.1465L115.592 17.408ZM95.2083 22.628C95.2083 23.4003 95.2855 24.237 95.4352 25.1355L97.0135 24.8725C96.8752 24.043 96.8083 23.2957 96.8083 22.628H95.2083ZM95.4352 25.1355C95.5908 26.0691 95.864 26.9553 96.256 27.7915L97.7047 27.1125C97.3767 26.4127 97.1459 25.6669 97.0135 24.8725L95.4352 25.1355ZM96.256 27.7915C96.6597 28.6529 97.2043 29.3916 97.8918 29.9966L98.9488 28.7954C98.4364 28.3444 98.021 27.7871 97.7047 27.1125L96.256 27.7915ZM97.9058 30.0086C98.673 30.653 99.6206 30.952 100.688 30.952V29.352C99.9321 29.352 99.3677 29.147 98.9349 28.7834L97.9058 30.0086ZM100.688 30.952C101.554 30.952 102.342 30.7898 103.015 30.4223L102.249 29.0177C101.867 29.2262 101.359 29.352 100.688 29.352V30.952ZM103.039 30.4087C103.666 30.0385 104.179 29.5587 104.563 28.968L103.222 28.096C102.982 28.4653 102.655 28.7775 102.225 29.0313L103.039 30.4087ZM104.548 28.9908C104.948 28.4191 105.227 27.7706 105.392 27.0559L103.833 26.6961C103.71 27.2294 103.509 27.6849 103.237 28.0732L104.548 28.9908ZM105.393 27.0495C105.55 26.3439 105.628 25.6256 105.628 24.896H104.028C104.028 25.5104 103.963 26.1121 103.831 26.7025L105.393 27.0495ZM105.628 24.896C105.628 24.1241 105.551 23.2763 105.402 22.3559L103.823 22.6121C103.961 23.4677 104.028 24.2279 104.028 24.896H105.628ZM105.403 22.3592C105.248 21.3794 104.975 20.4663 104.581 19.6245L103.132 20.3035C103.457 20.9977 103.689 21.7646 103.822 22.6088L105.403 22.3592ZM104.585 19.633C104.179 18.7403 103.617 17.9826 102.897 17.3733L101.864 18.5947C102.392 19.0414 102.814 19.6037 103.128 20.295L104.585 19.633ZM102.922 17.3953C102.156 16.691 101.199 16.356 100.112 16.356V17.956C100.849 17.956 101.404 18.173 101.839 18.5727L102.922 17.3953ZM100.112 16.356C99.2269 16.356 98.4216 16.5506 97.7388 16.9851L98.5978 18.3349C98.9711 18.0974 99.4618 17.956 100.112 17.956V16.356ZM97.7614 16.9713C97.1226 17.3487 96.5996 17.8584 96.1974 18.4905L97.5473 19.3495C97.8171 18.9256 98.1581 18.5953 98.5753 18.3487L97.7614 16.9713ZM96.1921 18.4989C95.8248 19.0923 95.5663 19.7687 95.4061 20.5164L96.9706 20.8516C97.0984 20.2553 97.2959 19.7557 97.5526 19.3411L96.1921 18.4989ZM95.4017 20.5383C95.273 21.2336 95.2083 21.9303 95.2083 22.628H96.8083C96.8083 22.0297 96.8637 21.4304 96.975 20.8297L95.4017 20.5383ZM116.02 34.191C116.609 34.2205 117.209 34.131 117.815 33.9383L117.33 32.4137C116.879 32.557 116.471 32.6115 116.1 32.593L116.02 34.191ZM117.835 33.9316C118.44 33.7212 119 33.4556 119.512 33.1324L118.657 31.7796C118.257 32.0324 117.809 32.2468 117.31 32.4204L117.835 33.9316ZM119.512 33.1324C120.04 32.7988 120.487 32.3989 120.84 31.928L119.56 30.968C119.338 31.2651 119.041 31.5372 118.657 31.7796L119.512 33.1324ZM120.836 31.934C121.226 31.4231 121.468 30.8488 121.468 30.224H119.868C119.868 30.4152 119.798 30.6569 119.565 30.962L120.836 31.934ZM121.468 30.224V22.88H119.868V30.224H121.468ZM120.409 22.1232C119.541 22.4207 118.652 22.779 117.742 23.1971L118.41 24.6509C119.276 24.253 120.116 23.9153 120.928 23.6368L120.409 22.1232ZM117.742 23.1971C116.807 23.6269 115.943 24.1347 115.152 24.7215L116.105 26.0065C116.802 25.4893 117.57 25.0371 118.41 24.6509L117.742 23.1971ZM115.152 24.7215C114.334 25.3281 113.655 26.0458 113.12 26.8743L114.465 27.7417C114.89 27.0822 115.435 26.5039 116.105 26.0065L115.152 24.7215ZM113.12 26.8743C112.548 27.7617 112.272 28.7799 112.272 29.9H113.872C113.872 29.0521 114.077 28.3423 114.465 27.7417L113.12 26.8743ZM112.272 29.9C112.272 31.2021 112.605 32.3247 113.418 33.1051L114.526 31.9509C114.139 31.5793 113.872 30.9499 113.872 29.9H112.272ZM113.442 33.1272C114.193 33.7917 115.065 34.1613 116.035 34.1916L116.085 32.5924C115.52 32.5747 114.999 32.3683 114.502 31.9288L113.442 33.1272ZM103.983 18.3654C104.883 18.8471 105.577 19.5207 106.078 20.3969L107.467 19.6031C106.816 18.4633 105.901 17.5769 104.738 16.9546L103.983 18.3654ZM106.078 20.3969C106.57 21.2582 106.836 22.3381 106.836 23.672H108.436C108.436 22.1259 108.127 20.7578 107.467 19.6031L106.078 20.3969ZM106.836 23.672C106.836 25.631 106.239 27.0654 105.118 28.084L106.194 29.268C107.714 27.8866 108.436 25.985 108.436 23.672H106.836ZM105.118 28.084C103.977 29.1217 102.432 29.676 100.4 29.676V31.276C102.737 31.276 104.696 30.6303 106.194 29.268L105.118 28.084ZM100.4 29.676C98.6564 29.676 97.2839 29.2639 96.2261 28.4965L95.2866 29.7915C96.6768 30.8001 98.4003 31.276 100.4 31.276V29.676ZM95.0863 28.707C94.8986 28.9947 94.7452 29.2514 94.6358 29.4702C94.5811 29.5797 94.5309 29.6925 94.4929 29.8039C94.4582 29.9057 94.4163 30.0553 94.4163 30.224H96.0163C96.0163 30.3087 95.997 30.3503 96.0073 30.3201C96.0143 30.2995 96.0316 30.2563 96.0669 30.1858C96.1375 30.0446 96.254 29.8453 96.4264 29.581L95.0863 28.707ZM94.4163 30.224C94.4163 30.575 94.5757 30.8541 94.7575 31.0489C94.9313 31.2351 95.1495 31.373 95.3626 31.4795L96.0781 30.0485C96.0205 30.0196 95.9805 29.9955 95.9544 29.9774C95.9278 29.9591 95.9218 29.9514 95.9272 29.9571C95.9329 29.9632 95.9555 29.9889 95.9769 30.0365C95.9997 30.0868 96.0163 30.1514 96.0163 30.224H94.4163ZM95.382 31.4889C95.7953 31.6818 96.2851 31.852 96.8419 32.0038L97.2628 30.4602C96.7636 30.324 96.3653 30.1822 96.0587 30.0391L95.382 31.4889ZM96.8504 32.0061C97.4158 32.1536 98.0395 32.3003 98.7207 32.4462L99.056 30.8818C98.3932 30.7397 97.7929 30.5984 97.2543 30.4579L96.8504 32.0061ZM98.7477 32.4515C99.4197 32.5715 100.092 32.6915 100.764 32.8115L101.045 31.2365C100.373 31.1165 99.701 30.9965 99.029 30.8765L98.7477 32.4515ZM100.791 32.816C101.449 32.9099 102.056 33.0151 102.613 33.1312L102.94 31.5648C102.345 31.4409 101.704 31.3301 101.017 31.232L100.791 32.816ZM102.65 33.138C103.245 33.2332 103.714 33.3154 104.059 33.3845L104.373 31.8155C103.999 31.7406 103.507 31.6548 102.903 31.558L102.65 33.138ZM104.043 33.381C104.638 33.5133 105.197 33.6998 105.719 33.9393L106.386 32.4847C105.756 32.1962 105.09 31.9747 104.39 31.819L104.043 33.381ZM105.755 33.9548C106.283 34.1657 106.736 34.4353 107.121 34.7599L108.152 33.5361C107.625 33.0927 107.022 32.7383 106.349 32.4692L105.755 33.9548ZM107.137 34.7727C107.53 35.0874 107.827 35.4536 108.037 35.8738L109.468 35.1582C109.15 34.5224 108.703 33.9766 108.136 33.5233L107.137 34.7727ZM108.037 35.8738C108.234 36.2689 108.348 36.7653 108.348 37.388H109.948C109.948 36.5707 109.798 35.8191 109.468 35.1582L108.037 35.8738ZM108.349 37.368C108.328 38.2018 108.121 38.9138 107.746 39.526L109.11 40.362C109.647 39.4862 109.921 38.4942 109.948 37.408L108.349 37.368ZM107.746 39.526C107.355 40.1642 106.828 40.7043 106.153 41.1472L107.031 42.4848C107.892 41.9197 108.59 41.2118 109.11 40.362L107.746 39.526ZM106.144 41.1537C105.488 41.5979 104.714 41.9345 103.811 42.1548L104.19 43.7092C105.255 43.4495 106.209 43.0421 107.041 42.4783L106.144 41.1537ZM103.788 42.1606C102.9 42.4049 101.975 42.528 101.012 42.528V44.128C102.113 44.128 103.181 43.9871 104.212 43.7034L103.788 42.1606ZM101.012 42.528C100.387 42.528 99.6693 42.472 98.8575 42.356L98.6312 43.94C99.4994 44.064 100.294 44.128 101.012 44.128V42.528ZM98.8378 42.3535C98.0691 42.263 97.3114 42.1048 96.5643 41.8784L96.1003 43.4096C96.9372 43.6632 97.7876 43.841 98.6509 43.9425L98.8378 42.3535ZM96.5643 41.8784C95.8373 41.6581 95.1999 41.3645 94.6461 41.0024L93.7705 42.3416C94.4648 42.7955 95.2434 43.15 96.1003 43.4096L96.5643 41.8784ZM94.6276 40.9907C94.1085 40.6712 93.7835 40.3107 93.5981 39.9228L92.1546 40.6132C92.4971 41.3293 93.0602 41.9048 93.7891 42.3533L94.6276 40.9907ZM93.6763 40.268V35.984H92.0763V40.268H93.6763ZM92.0981 36.1693C92.356 37.2524 92.7578 38.2534 93.3064 39.1676L94.6783 38.3444C94.2189 37.5786 93.8767 36.7316 93.6546 35.7987L92.0981 36.1693ZM93.3013 39.1591C93.849 40.098 94.5201 40.9031 95.3162 41.5666L96.3405 40.3374C95.6966 39.8009 95.1437 39.142 94.6834 38.3529L93.3013 39.1591ZM95.3044 41.5566C96.1023 42.2481 97.0172 42.7771 98.0421 43.145L98.5826 41.639C97.7355 41.3349 96.9944 40.9039 96.3523 40.3475L95.3044 41.5566ZM98.0314 43.1411C99.0917 43.5386 100.244 43.732 101.48 43.732V42.132C100.412 42.132 99.453 41.9654 98.5932 41.6429L98.0314 43.1411ZM101.48 43.732C102.166 43.732 102.851 43.6528 103.532 43.4955L103.172 41.9365C102.606 42.0672 102.042 42.132 101.48 42.132V43.732ZM103.498 43.5026C104.231 43.3668 104.909 43.1199 105.523 42.7567L104.709 41.3793C104.268 41.6401 103.769 41.8252 103.207 41.9294L103.498 43.5026ZM105.499 42.7703C106.157 42.4118 106.681 41.9006 107.065 41.251L105.688 40.437C105.447 40.8434 105.132 41.1482 104.733 41.3657L105.499 42.7703ZM107.051 41.2735C107.488 40.587 107.68 39.768 107.68 38.864H106.08C106.08 39.544 105.937 40.045 105.701 40.4145L107.051 41.2735ZM107.68 38.864C107.68 37.6465 107.163 36.6213 106.199 35.8328L105.186 37.0712C105.806 37.5787 106.08 38.1615 106.08 38.864H107.68ZM106.197 35.8311C105.279 35.0857 103.734 34.5016 101.702 34.0178L101.331 35.5742C103.331 36.0504 104.569 36.5703 105.188 37.0729L106.197 35.8311ZM101.684 34.0138C101.354 33.9431 100.879 33.8362 100.256 33.6925L99.8965 35.2515C100.522 35.3958 101.007 35.5049 101.349 35.5782L101.684 34.0138ZM100.227 33.6864C99.6038 33.5665 98.9201 33.4345 98.1764 33.2906L97.8723 34.8614C98.6166 35.0055 99.3009 35.1375 99.9253 35.2576L100.227 33.6864ZM98.1764 33.2906C97.4405 33.1482 96.7046 32.9938 95.9686 32.8276L95.6161 34.3884C96.3681 34.5582 97.1202 34.7158 97.8723 34.8614L98.1764 33.2906ZM95.9492 32.8235C95.2352 32.6807 94.6332 32.5508 94.1416 32.4338L93.771 33.9902C94.2875 34.1132 94.9095 34.2473 95.6355 34.3925L95.9492 32.8235ZM94.1416 32.4338C93.9232 32.3818 93.8007 32.3326 93.7434 32.3016C93.7168 32.2872 93.7224 32.2863 93.7429 32.3061C93.7648 32.3272 93.8095 32.3781 93.8414 32.4631L92.3433 33.0249C92.4773 33.3824 92.7633 33.5904 92.9813 33.7084C93.212 33.8334 93.4855 33.9222 93.771 33.9902L94.1416 32.4338ZM93.8513 32.491C93.896 32.6252 93.8506 32.6924 93.8785 32.6169C93.9037 32.5489 93.967 32.4258 94.1009 32.2404L92.8038 31.3036C92.6257 31.5502 92.473 31.8051 92.3781 32.0611C92.2861 32.3096 92.2167 32.6468 92.3334 32.997L93.8513 32.491ZM94.105 32.2346L96.121 29.3906L94.8157 28.4654L92.7997 31.3094L94.105 32.2346ZM95.9805 28.3134C95.3517 27.7894 94.859 27.1512 94.4997 26.3904L93.0529 27.0736C93.5097 28.0408 94.145 28.8666 94.9562 29.5426L95.9805 28.3134ZM94.5106 26.4145C94.1774 25.6439 94.0003 24.7353 94.0003 23.672H92.4003C92.4003 24.9127 92.6073 26.0441 93.0421 27.0495L94.5106 26.4145ZM94.0003 23.672C94.0003 22.7276 94.1539 21.8943 94.4471 21.1611L92.9616 20.5669C92.5828 21.5137 92.4003 22.5524 92.4003 23.672H94.0003ZM94.4428 21.1717C94.7641 20.4007 95.1962 19.7626 95.7348 19.2447L94.6259 18.0913C93.9165 18.7734 93.3646 19.5993 92.9659 20.5563L94.4428 21.1717ZM95.7348 19.2447C96.2736 18.7266 96.9347 18.3137 97.7315 18.0122L97.1652 16.5158C96.186 16.8863 95.335 17.4094 94.6259 18.0913L95.7348 19.2447ZM97.7315 18.0122C98.5174 17.7148 99.4039 17.56 100.4 17.56V15.96C99.2368 15.96 98.1552 16.1412 97.1652 16.5158L97.7315 18.0122ZM100.4 17.56C101.622 17.56 102.709 17.7816 103.675 18.211L104.325 16.7489C103.132 16.2184 101.819 15.96 100.4 15.96V17.56ZM103.643 18.1955L104.003 18.3755L104.718 16.9445L104.358 16.7645L103.643 18.1955ZM105.387 18.6552C106.775 17.5922 108.39 17.056 110.264 17.056V15.456C108.059 15.456 106.098 16.0958 104.414 17.3848L105.387 18.6552ZM110.264 17.056C110.967 17.056 111.566 17.1729 112.077 17.3888L112.7 15.9152C111.962 15.6031 111.146 15.456 110.264 15.456V17.056ZM112.101 17.3987C112.592 17.5875 112.891 17.8448 113.07 18.1436L114.442 17.3204C114.046 16.6592 113.433 16.1965 112.676 15.9053L112.101 17.3987ZM113.091 18.1758C113.303 18.4946 113.288 18.6528 113.271 18.7139L114.817 19.1261C114.993 18.4672 114.785 17.8333 114.422 17.2882L113.091 18.1758ZM113.271 18.7139C113.221 18.9013 113.138 19.007 113.025 19.0824L113.912 20.4136C114.375 20.105 114.675 19.6587 114.817 19.1261L113.271 18.7139ZM113.039 19.0731C112.959 19.124 112.843 19.1623 112.638 19.135L112.427 20.721C112.942 20.7897 113.45 20.708 113.898 20.4229L113.039 19.0731ZM112.638 19.135C112.562 19.1249 112.43 19.0805 112.256 18.8268L110.937 19.7332C111.291 20.2475 111.783 20.6351 112.427 20.721L112.638 19.135ZM112.262 18.8362C111.804 18.1497 111.323 17.5609 110.815 17.0792L109.714 18.2408C110.118 18.6231 110.524 19.1143 110.931 19.7238L112.262 18.8362ZM110.815 17.0792C110.198 16.4956 109.41 16.1993 108.516 16.1417L108.413 17.7383C109.007 17.7767 109.418 17.9604 109.714 18.2408L110.815 17.0792ZM108.496 16.1406C107.776 16.1118 107.047 16.2426 106.314 16.5138L106.87 18.0142C107.434 17.8054 107.953 17.7202 108.432 17.7394L108.496 16.1406ZM106.331 16.508C105.666 16.7381 105.056 17.0097 104.503 17.3254L105.297 18.7146C105.753 18.4543 106.271 18.2219 106.854 18.02L106.331 16.508ZM115.95 18.0515C116.551 17.7511 117.219 17.596 117.968 17.596V15.996C116.989 15.996 116.074 16.2009 115.235 16.6205L115.95 18.0515ZM117.968 17.596C118.634 17.596 119.244 17.6925 119.803 17.8789L120.309 16.3611C119.573 16.1155 118.791 15.996 117.968 15.996V17.596ZM119.803 17.8789C120.716 18.1833 121.373 18.7043 121.82 19.4422L123.189 18.6138C122.531 17.5277 121.556 16.7767 120.309 16.3611L119.803 17.8789ZM121.833 19.4634C122.3 20.1828 122.568 21.1805 122.568 22.52H124.168C124.168 20.9795 123.861 19.6492 123.176 18.5926L121.833 19.4634ZM122.568 22.52V30.656H124.168V22.52H122.568ZM122.568 30.656C122.568 31.2168 122.653 31.7519 122.83 32.2543L124.339 31.7217C124.228 31.4081 124.168 31.0552 124.168 30.656H122.568ZM122.851 32.3087C123.213 33.1359 124.039 33.3568 124.803 33.3274L124.742 31.7286C124.504 31.7377 124.385 31.7037 124.338 31.6827C124.319 31.6738 124.316 31.6688 124.319 31.6721C124.322 31.6757 124.321 31.6767 124.317 31.6673L122.851 32.3087ZM124.772 33.328C125.005 33.328 125.235 33.2895 125.46 33.2252L125.021 31.6868C124.909 31.7185 124.828 31.728 124.772 31.728V33.328ZM125.555 33.1913C125.827 33.0749 126.066 32.9054 126.274 32.6977L125.143 31.5663C125.062 31.6466 124.99 31.6931 124.925 31.7207L125.555 33.1913ZM124.908 32.132V32.312H126.508V32.132H124.908ZM125.011 31.9198C124.884 32.1456 124.66 32.3735 124.279 32.583L125.05 33.985C125.629 33.6665 126.101 33.2464 126.406 32.7042L125.011 31.9198ZM124.279 32.583C123.933 32.7735 123.517 32.88 123.008 32.88V34.48C123.748 34.48 124.436 34.3225 125.05 33.985L124.279 32.583ZM123.008 32.88C122.677 32.88 122.466 32.8155 122.331 32.737L121.525 34.119C121.967 34.3765 122.476 34.48 123.008 34.48V32.88ZM122.331 32.737C122.121 32.6143 121.959 32.4731 121.833 32.3162L120.584 33.3158C120.842 33.6389 121.159 33.9057 121.525 34.119L122.331 32.737ZM121.864 32.3572C121.737 32.1756 121.658 32.0119 121.615 31.8661L120.082 32.3259C120.182 32.6601 120.344 32.9764 120.553 33.2748L121.864 32.3572ZM121.62 31.8855C121.557 31.6529 121.54 31.5146 121.54 31.448H119.94C119.94 31.7174 119.996 32.0111 120.077 32.3065L121.62 31.8855ZM120.14 30.9187C119.813 31.29 119.467 31.6139 119.102 31.8925L120.074 33.1635C120.526 32.8181 120.948 32.422 121.34 31.9773L120.14 30.9187ZM119.108 31.888C118.782 32.1328 118.395 32.3543 117.941 32.5487L118.571 34.0193C119.126 33.7817 119.627 33.4992 120.068 33.168L119.108 31.888ZM117.928 32.5545C117.529 32.7339 117.039 32.8729 116.447 32.9606L116.682 34.5434C117.385 34.4391 118.023 34.2661 118.585 34.0135L117.928 32.5545ZM116.413 32.9664C115.861 33.0725 115.19 33.1192 114.391 33.0963L114.345 34.6957C115.226 34.7208 116.019 34.6715 116.715 34.5376L116.413 32.9664ZM114.399 33.0966C113.838 33.075 113.334 32.9893 112.883 32.8457L112.398 34.3703C113.002 34.5627 113.651 34.669 114.338 34.6954L114.399 33.0966ZM112.851 32.8362C112.411 32.7161 112.092 32.5475 111.865 32.3526L110.824 33.5674C111.268 33.9485 111.814 34.2118 112.43 34.3798L112.851 32.8362ZM111.868 32.3554C111.588 32.1123 111.382 31.8408 111.24 31.5394L109.792 32.2206C110.035 32.7352 110.381 33.1837 110.82 33.5646L111.868 32.3554ZM111.256 31.5754C111.126 31.2588 111.047 30.9052 111.027 30.5081L109.429 30.5879C109.457 31.1508 109.571 31.6852 109.777 32.1846L111.256 31.5754ZM111.028 30.5204C111.008 29.9577 111.123 29.3826 111.39 28.7872L109.93 28.1328C109.573 28.9294 109.4 29.7463 109.429 30.5756L111.028 30.5204ZM111.39 28.7872C111.654 28.1992 112.009 27.7429 112.449 27.398L111.463 26.138C110.8 26.6571 110.291 27.3288 109.93 28.1328L111.39 28.7872ZM112.454 27.3945C113.232 26.7767 113.971 26.3088 114.672 25.9804L113.993 24.5316C113.157 24.9232 112.313 25.4633 111.459 26.1415L112.454 27.3945ZM114.663 25.9843C115.449 25.6273 116.21 25.2945 116.946 24.9858L116.327 23.5102C115.575 23.8255 114.8 24.1647 114.001 24.5277L114.663 25.9843ZM116.937 24.9892C117.722 24.6705 118.406 24.3601 118.986 24.0573L118.246 22.6387C117.723 22.9119 117.087 23.2015 116.335 23.5068L116.937 24.9892ZM118.986 24.0573C119.581 23.7472 120.089 23.4087 120.493 23.0342L119.404 21.8618C119.135 22.1113 118.756 22.3728 118.246 22.6387L118.986 24.0573ZM120.514 23.0137C120.926 22.6016 121.235 22.1296 121.423 21.5983L119.914 21.0657C119.813 21.3504 119.643 21.6224 119.383 21.8823L120.514 23.0137ZM121.414 21.622C121.625 21.0781 121.72 20.472 121.72 19.82H120.12C120.12 20.32 120.047 20.7219 119.923 21.042L121.414 21.622ZM121.72 19.7852C121.691 19.1271 121.531 18.5192 121.19 18.0082L119.859 18.8958C119.998 19.1048 120.102 19.4089 120.121 19.8547L121.72 19.7852ZM121.222 18.0598C120.945 17.568 120.571 17.1616 120.104 16.8504L119.217 18.1816C119.47 18.3504 119.672 18.568 119.827 18.8442L121.222 18.0598ZM120.104 16.8504C119.716 16.5914 119.276 16.423 118.8 16.3337L118.505 17.9063C118.797 17.961 119.029 18.0566 119.217 18.1816L120.104 16.8504ZM118.809 16.3355C118.375 16.2487 117.922 16.2218 117.453 16.2494L117.547 17.8466C117.895 17.8262 118.21 17.8473 118.495 17.9045L118.809 16.3355ZM117.5 16.248C117.107 16.248 116.715 16.2902 116.325 16.3738L116.66 17.9382C116.942 17.8778 117.222 17.848 117.5 17.848V16.248ZM116.371 16.3653C115.996 16.423 115.633 16.5244 115.285 16.6695L115.9 18.1465C116.128 18.0516 116.365 17.985 116.614 17.9467L116.371 16.3653ZM116.392 17.408V17.336H114.792V17.408H116.392Z" fill="url(#paint1_linear_1_31)"/>
<defs>
<linearGradient id="paint0_linear_1_31" x1="3.47737e-06" y1="23" x2="50.5532" y2="-34.6374" gradientUnits="userSpaceOnUse">
<stop stop-color="#FF62B7"/>
<stop offset="1" stop-color="#9F53FF"/>
</linearGradient>
<linearGradient id="paint1_linear_1_31" x1="3.47737e-06" y1="23" x2="50.5532" y2="-34.6374" gradientUnits="userSpaceOnUse">
<stop stop-color="#FF62B7"/>
<stop offset="1" stop-color="#9F53FF"/>
</linearGradient>
</defs>
</svg>
