<svg xmlns="http://www.w3.org/2000/svg" width="96" height="96" fill="none"><path fill="#fff" fill-opacity=".5" d="M48 96c26.51 0 48-21.49 48-48C96 21.492 74.51 0 48 0S0 21.492 0 48c0 26.51 21.49 48 48 48Z"/><path fill="#fff" fill-opacity=".5" d="M48 88c22.091 0 40-17.908 40-40C88 25.91 70.091 8.002 48 8.002s-40 17.909-40 40 17.909 40 40 40Z"/><path fill="#fff" fill-opacity=".5" d="M48 80c17.673 0 32-14.326 32-32 0-17.672-14.327-32-32-32-17.673 0-32 14.328-32 32 0 17.674 14.327 32 32 32Z"/><path fill="url(#a)" d="m57.9 42.105-9.667-5.567c-2.4-1.4-5.3-1.4-7.7 0-2.4 1.4-3.834 3.867-3.834 6.667V54.37a7.656 7.656 0 0 0 3.834 6.667c1.2.7 2.533 1.033 3.833 1.033a7.527 7.527 0 0 0 3.833-1.033l9.667-5.567c2.4-1.4 3.833-3.866 3.833-6.666.067-2.8-1.366-5.3-3.8-6.7Z"/><defs><linearGradient id="a" x1="36.699" x2="56.701" y1="48.78" y2="41.18" gradientUnits="userSpaceOnUse"><stop stop-color="#FF62B7"/><stop offset="1" stop-color="#9F53FF"/></linearGradient></defs></svg>