<svg xmlns="http://www.w3.org/2000/svg" width="32" height="32" fill="none"><path fill="url(#a)" d="M15.958 29.333c7.364 0 13.334-5.97 13.334-13.333 0-7.364-5.97-13.333-13.334-13.333C8.595 2.667 2.625 8.637 2.625 16c0 7.364 5.97 13.333 13.333 13.333Z"/><path fill="#fff" d="m19.96 13.641-3.867-2.226c-.96-.56-2.12-.56-3.08 0a3.046 3.046 0 0 0-1.534 2.666v4.467c0 1.107.574 2.107 1.534 2.667a3.046 3.046 0 0 0 3.066 0l3.867-2.227a3.046 3.046 0 0 0 1.533-2.667 2.976 2.976 0 0 0-1.52-2.68Z"/><defs><linearGradient id="a" x1="2.625" x2="23.613" y1="16" y2="7.521" gradientUnits="userSpaceOnUse"><stop stop-color="#FF62B7"/><stop offset="1" stop-color="#9F53FF"/></linearGradient></defs></svg>