<svg xmlns="http://www.w3.org/2000/svg" aria-hidden="true" style="position:absolute;width:0;height:0;overflow:hidden"><defs><symbol id="icon-direct" viewBox="0 0 32 32"><path d="M1.406 11.23c-.777-.312-.768-.777.052-1.05L30.541.486c.806-.268 1.268.183 1.042.972l-8.311 29.083c-.229.806-.724.843-1.093.107l-6.942-13.886-13.832-5.531zm7.452-.304 8.588 3.436 4.632 9.268 5.403-18.91-18.624 6.206z"/></symbol><symbol id="icon-heart" viewBox="0 0 32 32"><path fill="#ff2d27" d="M17.254 29.505c-.531.188-1.405.188-1.936 0C10.791 27.959.676 21.515.676 10.587c0-4.823 3.887-8.725 8.679-8.725h.004c2.83 0 5.34 1.365 6.91 3.473l.016.023c1.589-2.13 4.1-3.494 6.931-3.497 4.793 0 8.678 3.903 8.678 8.725 0 10.928-10.115 17.374-14.641 18.919z" style="fill:var(--color1, #ff2d27)"/></symbol><symbol id="icon-instagram" viewBox="0 0 32 32"><path d="M16 11.2a4.8 4.8 0 1 0 0 9.6 4.8 4.8 0 1 0 0-9.6zM16 8a8 8 0 0 1 0 16 8 8 0 0 1 0-16zm10.4-.4a2 2 0 1 1-4 0 2 2 0 1 1 4 0zM16 3.2c-3.958 0-4.605.011-6.446.093-1.254.059-2.096.227-2.877.531A4.636 4.636 0 0 0 4.95 4.948l-.001.001a4.619 4.619 0 0 0-1.116 1.696l-.011.032c-.304.784-.472 1.624-.53 2.877-.083 1.766-.093 2.384-.093 6.446 0 3.958.011 4.605.093 6.446.059 1.253.227 2.096.53 2.875a4.668 4.668 0 0 0 1.123 1.728 4.64 4.64 0 0 0 1.728 1.125c.79.306 1.632.475 2.88.533 1.766.083 2.384.093 6.446.093 3.958 0 4.605-.011 6.446-.093 1.251-.059 2.094-.227 2.875-.53a4.706 4.706 0 0 0 1.727-1.122l.001-.001a4.619 4.619 0 0 0 1.126-1.728c.304-.789.474-1.632.531-2.88.083-1.766.093-2.384.093-6.446 0-3.958-.011-4.605-.093-6.446-.059-1.251-.227-2.096-.531-2.877A4.682 4.682 0 0 0 27.05 4.95l-.001-.001a4.619 4.619 0 0 0-1.696-1.116l-.032-.01c-.784-.304-1.626-.472-2.877-.53-1.766-.083-2.384-.093-6.446-.093zM16 0c4.347 0 4.89.016 6.595.096 1.704.08 2.864.347 3.885.744a7.79 7.79 0 0 1 2.835 1.845A7.86 7.86 0 0 1 31.16 5.52c.395 1.019.664 2.181.744 3.885.075 1.706.096 2.248.096 6.595s-.016 4.89-.096 6.595c-.08 1.704-.349 2.864-.744 3.885a7.848 7.848 0 0 1-1.844 2.834l-.001.001a7.873 7.873 0 0 1-2.835 1.845c-1.019.395-2.181.664-3.885.744-1.706.075-2.248.096-6.595.096s-4.89-.016-6.595-.096c-1.704-.08-2.864-.349-3.885-.744a7.848 7.848 0 0 1-2.834-1.844l-.001-.001a7.863 7.863 0 0 1-1.827-2.782l-.018-.054C.443 25.46.176 24.298.096 22.594.021 20.888 0 20.346 0 15.999s.016-4.89.096-6.595C.176 7.698.443 6.54.84 5.519a7.848 7.848 0 0 1 1.844-2.834l.001-.001A7.85 7.85 0 0 1 5.467.857l.054-.018C6.542.442 7.7.175 9.406.095c1.706-.075 2.248-.096 6.595-.096z"/></symbol><symbol id="icon-linkedin" viewBox="0 0 32 32"><path d="M7.529 5.333a3.047 3.047 0 0 1-6.096-.002v-.002a3.047 3.047 0 0 1 6.096.002v.002zm.092 5.303H1.526v19.078h6.095V10.636zm9.63 0h-6.065v19.078h6.004V19.703c0-5.577 7.269-6.095 7.269 0v10.011h6.019V17.63c0-9.402-10.758-9.051-13.288-4.434l.061-2.56z"/></symbol><symbol id="icon-short-arrow" viewBox="0 0 32 32"><path stroke-width="2.064" d="M.516 17.032h30.968M17.032 4.645c2.408 4.129 8.671 12.387 14.452 12.387M17.032 27.355c2.408-3.441 8.671-10.323 14.452-10.323" /></symbol><symbol id="icon-long-arrow" viewBox="0 0 32 32"><path d="M.314 16.314h31.373m-9.726-8.157c1.569 2.719 5.647 8.157 9.412 8.157m-9.412 7.529c1.569-2.51 5.647-7.529 9.412-7.529" /></symbol><symbol id="icon-play-circle-light" viewBox="0 0 32 32"><path fill="#fff" d="M16 32c8.837 0 16-7.163 16-16S24.837 0 16 0 0 7.164 0 16c0 8.837 7.163 16 16 16z" opacity=".5" style="fill:var(--color2, #fff)"/><path fill="#fff" d="M16 29.333c7.364 0 13.333-5.969 13.333-13.333S23.363 2.667 16 2.667 2.667 8.637 2.667 16 8.637 29.333 16 29.333z" opacity=".5" style="fill:var(--color2, #fff)"/><path fill="#fff" d="M16 26.667c5.891 0 10.667-4.775 10.667-10.667S21.891 5.333 16 5.333 5.333 10.109 5.333 16 10.109 26.667 16 26.667z" opacity=".5" style="fill:var(--color2, #fff)"/><path d="m19.3 14.035-3.222-1.856c-.8-.467-1.767-.467-2.567 0s-1.278 1.289-1.278 2.222v3.733c0 .94.509 1.762 1.266 2.205l.012.007c.4.233.844.344 1.278.344h.009c.468 0 .905-.128 1.28-.351l-.012.006 3.222-1.856a2.54 2.54 0 0 0 1.278-2.222 2.478 2.478 0 0 0-1.267-2.233z" style="fill:var(--color3, #000)"/></symbol><symbol id="icon-play-circle-dark" viewBox="0 0 32 32"><path d="M15.958 29.333c7.364 0 13.334-5.97 13.334-13.333S23.322 2.667 15.958 2.667C8.595 2.667 2.625 8.637 2.625 16s5.97 13.333 13.333 13.333z" style="fill:var(--color3, #000)"/><path fill="#fff" d="m19.96 13.641-3.867-2.226c-.96-.56-2.12-.56-3.08 0a3.05 3.05 0 0 0-1.534 2.644v.023-.001 4.467c0 1.107.574 2.107 1.534 2.667.439.26.968.414 1.533.414s1.094-.154 1.547-.422l-.014.008 3.867-2.227a3.049 3.049 0 0 0 1.533-2.644v-.025.001l.001-.084a2.974 2.974 0 0 0-1.506-2.588l-.015-.008z" style="fill:var(--color2, #fff)"/></symbol><symbol id="icon-trainer" viewBox="0 0 32 32"><path d="M25.916.007C20.786.46 17 3.02 14.793 6.722 13.314 8.576 10.36 14.236 9.285 17.2c-1.948 3.684-3.647 8.069-4.975 12.02-.813 2.418 2.836 3.995 3.653 1.567.995-2.957 2.196-6.154 3.553-9.121 1.347 3.015 2.716 6.02 4.186 8.977 1.14 2.296 4.567.283 3.432-2.005-1.513-3.045-2.919-6.138-4.304-9.24.018-.06.04-.12.059-.179.23.066.485.086.765.033l6.359-1.193c.905-.17 1.253-1.161 1.11-1.955-.428-2.378-1.783-4.032-3.47-5.597-.25-.852-1.085-1.605-2.012-2.354 1.879-3.036 4.945-4.685 8.937-5.036 2.037-.179 1.358-3.287-.661-3.11zm-7.72 13.517c.524.545.97 1.119 1.306 1.783l-3.076.577a17.509 17.509 0 0 1 1.785-2.377l-.015.017z"/><path d="M22.58 10.817a2.73 2.73 0 0 0 0-5.458 2.73 2.73 0 0 0 0 5.458z"/></symbol><symbol id="icon-twitter" viewBox="0 0 32 32"><path d="M30.778 6.772c-1.017.463-2.197.8-3.435.951l-.059.006a6.129 6.129 0 0 0 2.664-3.323l.012-.043a12.15 12.15 0 0 1-3.863 1.476 6.082 6.082 0 0 0-10.357 5.59l-.008-.042A17.263 17.263 0 0 1 3.218 5.062l-.024-.031a5.988 5.988 0 0 0-.823 3.05v.009a6.08 6.08 0 0 0 2.705 5.062 6.03 6.03 0 0 1-2.785-.775l.03.016v.076a6.09 6.09 0 0 0 4.84 5.957l.04.007a6.147 6.147 0 0 1-2.788.1l.039.006c.8 2.437 3.032 4.175 5.677 4.225h.006a12.131 12.131 0 0 1-7.541 2.607c-.516 0-1.024-.032-1.523-.094l.06.006c2.63 1.715 5.85 2.735 9.308 2.735h.017-.001c11.188 0 17.309-9.27 17.309-17.309 0-.262-.009-.527-.02-.785a12.484 12.484 0 0 0 3.008-3.105l.028-.044v-.001z"/></symbol></defs></svg>











