<svg xmlns="http://www.w3.org/2000/svg" width="65" height="74" fill="none"><path fill="#2C0958" d="M10.548 27.286 0 29.57l10.548 2.286L13.185 41l3.076-9.143 10.548-2.286-10.548-2.285L12.745 17l-2.197 10.286ZM54.915 35l-5.962 1.333 5.962 1.334L56.405 43l1.74-5.333 5.961-1.334L58.144 35l-1.987-6-1.242 6ZM20.695 66.429l-3.21.761 3.21.762.802 3.048.936-3.048 3.21-.761-3.21-.762L21.363 63l-.668 3.429ZM5.045 66 0 67.333l5.045 1.334L6.305 74l1.472-5.333 5.045-1.334L7.777 66l-1.681-6-1.051 6ZM32.523 6.857l-6.879 1.524 6.88 1.524L34.243 16l2.006-6.095 6.879-1.524-6.88-1.524L33.958 0l-1.434 6.857ZM40.507 26.429l-3.21.762 3.21.761L41.31 31l.936-3.048 3.21-.762-3.21-.761L41.176 23l-.669 3.429Z"/></svg>