<svg xmlns="http://www.w3.org/2000/svg" width="230" height="230" fill="none"><circle cx="115" cy="115" r="110" fill="#2C0958" stroke="url(#a)" stroke-width="10"/><path fill="#fff" d="M116.55 78.025c-.85.3-2.25.3-3.1 0C106.2 75.55 90 65.225 90 47.725 90 40 96.225 33.75 103.9 33.75c4.55 0 8.575 2.2 11.1 5.6 2.525-3.4 6.575-5.6 11.1-5.6 7.675 0 13.9 6.25 13.9 13.975 0 17.5-16.2 27.825-23.45 30.3ZM81.094 161.375v-3.031c1.406-.063 2.39-.156 2.953-.282.896-.197 1.625-.593 2.187-1.187.386-.406.678-.948.875-1.625.115-.406.172-.708.172-.906h3.703V177h-4.562v-15.625h-5.328Zm21.062 8.453c0 1.219.328 2.214.985 2.984.656.771 1.489 1.157 2.5 1.157.989 0 1.765-.37 2.328-1.11.573-.75.859-1.718.859-2.906 0-1.323-.323-2.333-.969-3.031-.645-.708-1.437-1.063-2.375-1.063-.76 0-1.432.23-2.015.688-.875.677-1.313 1.771-1.313 3.281Zm6.266-9.781c0-.365-.141-.766-.422-1.203-.479-.709-1.203-1.063-2.172-1.063-1.448 0-2.479.813-3.094 2.438-.333.896-.562 2.219-.687 3.969.552-.657 1.193-1.136 1.922-1.438.729-.302 1.562-.453 2.5-.453 2.01 0 3.656.682 4.937 2.047 1.292 1.364 1.938 3.109 1.938 5.234 0 2.115-.63 3.979-1.891 5.594-1.26 1.614-3.219 2.422-5.875 2.422-2.854 0-4.958-1.193-6.312-3.578-1.053-1.865-1.579-4.271-1.579-7.219 0-1.729.073-3.136.22-4.219.26-1.927.765-3.531 1.515-4.812a7.782 7.782 0 0 1 2.531-2.641c1.052-.667 2.307-1 3.766-1 2.104 0 3.781.542 5.031 1.625 1.25 1.073 1.953 2.505 2.109 4.297h-4.437Zm11.547 10.375c0 1.114.286 1.979.859 2.594.583.614 1.386.922 2.406.922 1.021 0 1.818-.308 2.391-.922.583-.615.875-1.48.875-2.594 0-1.156-.297-2.031-.891-2.625-.583-.604-1.375-.906-2.375-.906s-1.796.302-2.39.906c-.584.594-.875 1.469-.875 2.625Zm-4.625.297c0-1.271.286-2.422.859-3.453.583-1.032 1.432-1.808 2.547-2.328-1.094-.73-1.807-1.516-2.141-2.36-.323-.854-.484-1.651-.484-2.39 0-1.646.62-3.047 1.859-4.204 1.24-1.166 2.99-1.75 5.25-1.75 2.261 0 4.011.584 5.25 1.75 1.24 1.157 1.86 2.558 1.86 4.204 0 .739-.167 1.536-.5 2.39-.323.844-1.032 1.578-2.125 2.203 1.114.625 1.953 1.453 2.515 2.485.563 1.031.844 2.182.844 3.453 0 1.906-.708 3.531-2.125 4.875-1.406 1.333-3.375 2-5.906 2-2.531 0-4.448-.667-5.75-2-1.302-1.344-1.953-2.969-1.953-4.875Zm5.031-10.031c0 .822.25 1.494.75 2.015.51.521 1.214.781 2.109.781.907 0 1.605-.26 2.094-.781.5-.521.75-1.193.75-2.015 0-.896-.25-1.594-.75-2.094-.489-.511-1.187-.766-2.094-.766-.895 0-1.599.255-2.109.766-.5.5-.75 1.198-.75 2.094Zm28.813-2.563c-.667.656-1.594 1.828-2.782 3.516a30.724 30.724 0 0 0-2.984 5.203c-.636 1.406-1.208 3.125-1.719 5.156-.51 2.031-.765 3.698-.765 5h-4.626c.136-4.062 1.469-8.286 4-12.672 1.636-2.719 3.006-4.614 4.11-5.687h-11.297l.063-4h16v3.484Zm-49.336 31.359h1.367v4.164a3.083 3.083 0 0 1 2.492-1.234c1.042 0 1.885.359 2.531 1.078.651.714.977 1.768.977 3.164 0 1.323-.321 2.422-.961 3.297-.641.875-1.529 1.313-2.664 1.313-.636 0-1.172-.154-1.61-.461-.26-.183-.539-.474-.836-.875V201h-1.296v-11.516Zm3.656 10.539c.76 0 1.328-.302 1.703-.906.38-.604.57-1.401.57-2.39 0-.881-.19-1.61-.57-2.188-.375-.578-.93-.867-1.664-.867-.641 0-1.203.237-1.688.711-.479.474-.718 1.255-.718 2.344 0 .786.099 1.424.297 1.914.369.921 1.059 1.382 2.07 1.382Zm8.89.032c.657 0 1.201-.274 1.633-.821.438-.552.657-1.375.657-2.468 0-.667-.097-1.24-.29-1.719-.364-.922-1.031-1.383-2-1.383-.974 0-1.64.487-2 1.461-.192.521-.289 1.182-.289 1.984 0 .646.097 1.196.289 1.649.365.864 1.032 1.297 2 1.297Zm-3.64-7.383h1.367v1.109a3.43 3.43 0 0 1 .922-.883c.474-.312 1.031-.468 1.672-.468.948 0 1.752.364 2.414 1.093.661.724.992 1.761.992 3.11 0 1.823-.477 3.125-1.43 3.906a3.228 3.228 0 0 1-2.109.742c-.63 0-1.159-.138-1.586-.414-.25-.156-.529-.424-.836-.805v4.274h-1.406v-11.664Zm9.015-.039h1.391v1.187c.333-.411.635-.711.906-.898.464-.318.99-.477 1.578-.477.667 0 1.204.164 1.61.493.229.187.437.463.625.828.312-.448.679-.779 1.101-.993a3.053 3.053 0 0 1 1.422-.328c1.125 0 1.891.407 2.297 1.219.219.438.328 1.026.328 1.766V201h-1.461v-5.812c0-.558-.14-.941-.422-1.149-.276-.208-.614-.312-1.015-.312-.552 0-1.029.184-1.43.554-.396.37-.594.987-.594 1.852V201h-1.429v-5.461c0-.568-.068-.982-.203-1.242-.214-.391-.612-.586-1.196-.586-.531 0-1.015.206-1.453.617-.432.412-.648 1.156-.648 2.234V201h-1.407v-8.367Z"/><rect width="6.349" height="29.841" x="48" y="99.079" fill="#fff" rx="3.175"/><rect width="6.349" height="17.143" x="60.699" y="105.428" fill="#fff" rx="3.175"/><rect width="6.349" height="23.492" x="73.398" y="102.254" fill="#fff" rx="3.175"/><rect width="6.349" height="40" x="86.094" y="94" fill="#fff" rx="3.175"/><rect width="6.349" height="23.492" x="98.793" y="102.254" fill="#fff" rx="3.175"/><rect width="6.349" height="37.46" x="111.492" y="95.27" fill="#fff" rx="3.175"/><rect width="6.349" height="29.841" x="124.191" y="99.079" fill="#fff" fill-opacity=".5" rx="3.175"/><rect width="6.349" height="14.603" x="136.887" y="106.698" fill="#fff" fill-opacity=".5" rx="3.175"/><rect width="6.349" height="37.46" x="149.586" y="95.27" fill="#fff" fill-opacity=".5" rx="3.175"/><rect width="6.349" height="19.683" x="162.285" y="104.159" fill="#fff" fill-opacity=".5" rx="3.175"/><rect width="6.349" height="29.841" x="174.984" y="99.079" fill="#fff" fill-opacity=".5" rx="3.175"/><defs><linearGradient id="a" x1="5" x2="178.15" y1="115" y2="45.05" gradientUnits="userSpaceOnUse"><stop stop-color="#FF62B7"/><stop offset="1" stop-color="#9F53FF"/></linearGradient></defs></svg>