<svg xmlns="http://www.w3.org/2000/svg" width="24" height="32" fill="none"><path fill="url(#a)" d="M21.916.007C16.786.46 13 3.02 10.793 6.722 9.314 8.576 6.36 14.236 5.285 17.2 3.337 20.884 1.638 25.269.31 29.22c-.813 2.418 2.836 3.995 3.653 1.567.995-2.957 2.196-6.154 3.553-9.121 1.347 3.015 2.716 6.02 4.186 8.977 1.14 2.296 4.567.283 3.432-2.005-1.513-3.045-2.919-6.138-4.304-9.24.018-.06.04-.12.059-.179.23.066.485.086.765.033l6.359-1.193c.905-.17 1.253-1.161 1.11-1.955-.428-2.378-1.783-4.032-3.47-5.597-.25-.852-1.085-1.605-2.012-2.354 1.879-3.036 4.945-4.685 8.937-5.036 2.037-.179 1.358-3.287-.661-3.11Zm-7.72 13.517c.524.545.97 1.119 1.306 1.783l-3.076.577a17.397 17.397 0 0 1 1.77-2.36Z"/><path fill="url(#b)" d="M18.58 10.817a2.729 2.729 0 1 0 0-5.458 2.729 2.729 0 0 0 0 5.458Z"/><defs><linearGradient id="a" x1=".191" x2="20.048" y1="16" y2="10.08" gradientUnits="userSpaceOnUse"><stop stop-color="#FF62B7"/><stop offset="1" stop-color="#9F53FF"/></linearGradient><linearGradient id="b" x1="15.852" x2="20.147" y1="8.088" y2="6.353" gradientUnits="userSpaceOnUse"><stop stop-color="#FF62B7"/><stop offset="1" stop-color="#9F53FF"/></linearGradient></defs></svg>